<svg width="115" height="114" viewBox="0 0 115 114" fill="none" xmlns="http://www.w3.org/2000/svg">
<g filter="url(#filter0_d_1673_504)">
<rect x="16.5" y="16" width="62" height="62" rx="10" fill="#0252CD"/>
</g>
<path d="M58.1538 37H37.8462C37.3565 37 36.8869 37.1916 36.5407 37.5325C36.1945 37.8735 36 38.336 36 38.8182V55.1818C36 55.664 36.1945 56.1265 36.5407 56.4675C36.8869 56.8084 37.3565 57 37.8462 57H58.1538C58.6435 57 59.1131 56.8084 59.4593 56.4675C59.8055 56.1265 60 55.664 60 55.1818V38.8182C60 38.336 59.8055 37.8735 59.4593 37.5325C59.1131 37.1916 58.6435 37 58.1538 37ZM43.9385 49C44.1343 49.1447 44.2638 49.36 44.2984 49.5987C44.333 49.8374 44.27 50.0798 44.1231 50.2727C43.9762 50.4656 43.7575 50.5931 43.5152 50.6272C43.2728 50.6613 43.0266 50.5992 42.8308 50.4545L39.1385 47.7273C39.0238 47.6426 38.9308 47.5328 38.8667 47.4066C38.8026 47.2803 38.7692 47.1411 38.7692 47C38.7692 46.8589 38.8026 46.7197 38.8667 46.5934C38.9308 46.4672 39.0238 46.3574 39.1385 46.2727L42.8308 43.5455C43.0266 43.4008 43.2728 43.3387 43.5152 43.3728C43.7575 43.4069 43.9762 43.5344 44.1231 43.7273C44.27 43.9202 44.333 44.1626 44.2984 44.4013C44.2638 44.64 44.1343 44.8553 43.9385 45L41.2304 47L43.9385 49ZM50.7335 40.8864L47.0412 53.6136C47.0097 53.7305 46.9549 53.8399 46.8799 53.9356C46.805 54.0314 46.7114 54.1114 46.6047 54.1711C46.498 54.2307 46.3803 54.2689 46.2584 54.2832C46.1366 54.2975 46.013 54.2878 45.895 54.2546C45.7771 54.2213 45.667 54.1652 45.5713 54.0896C45.4755 54.014 45.3961 53.9203 45.3376 53.814C45.2791 53.7078 45.2426 53.5912 45.2304 53.4709C45.2182 53.3506 45.2305 53.2292 45.2665 53.1136L48.9588 40.3864C49.0298 40.1588 49.1886 39.9677 49.4011 39.8542C49.6135 39.7407 49.8627 39.7137 50.0951 39.7792C50.3275 39.8447 50.5246 39.9974 50.6439 40.2044C50.7633 40.4114 50.7954 40.6563 50.7335 40.8864ZM56.8615 47.7273L53.1692 50.4545C52.9734 50.5992 52.7272 50.6613 52.4848 50.6272C52.2425 50.5931 52.0238 50.4656 51.8769 50.2727C51.73 50.0798 51.667 49.8374 51.7016 49.5987C51.7362 49.36 51.8657 49.1447 52.0615 49L54.7696 47L52.0615 45C51.9646 44.9284 51.8829 44.8386 51.8211 44.7359C51.7593 44.6332 51.7187 44.5195 51.7016 44.4013C51.6844 44.2831 51.6911 44.1628 51.7212 44.0471C51.7513 43.9315 51.8042 43.8228 51.8769 43.7273C51.9497 43.6318 52.0408 43.5513 52.1451 43.4905C52.2494 43.4297 52.3648 43.3897 52.4848 43.3728C52.6048 43.3559 52.727 43.3624 52.8445 43.3921C52.9619 43.4217 53.0723 43.4738 53.1692 43.5455L56.8615 46.2727C56.9762 46.3574 57.0692 46.4672 57.1333 46.5934C57.1974 46.7197 57.2308 46.8589 57.2308 47C57.2308 47.1411 57.1974 47.2803 57.1333 47.4066C57.0692 47.5328 56.9762 47.6426 56.8615 47.7273Z" fill="white"/>
<defs>
<filter id="filter0_d_1673_504" x="0.5" y="0" width="114" height="114" filterUnits="userSpaceOnUse" color-interpolation-filters="sRGB">
<feFlood flood-opacity="0" result="BackgroundImageFix"/>
<feColorMatrix in="SourceAlpha" type="matrix" values="0 0 0 0 0 0 0 0 0 0 0 0 0 0 0 0 0 0 127 0" result="hardAlpha"/>
<feOffset dx="10" dy="10"/>
<feGaussianBlur stdDeviation="13"/>
<feComposite in2="hardAlpha" operator="out"/>
<feColorMatrix type="matrix" values="0 0 0 0 0.00784314 0 0 0 0 0.321569 0 0 0 0 0.803922 0 0 0 0.28 0"/>
<feBlend mode="normal" in2="BackgroundImageFix" result="effect1_dropShadow_1673_504"/>
<feBlend mode="normal" in="SourceGraphic" in2="effect1_dropShadow_1673_504" result="shape"/>
</filter>
</defs>
</svg>
