<svg width="16" height="16" viewBox="0 0 16 16" fill="none" xmlns="http://www.w3.org/2000/svg">
<g clip-path="url(#clip0_1743_9743)">
<path d="M13.637 2.363H13.636L15.312 2.698C15.402 2.716 15.476 2.782 15.502 2.871C15.5151 2.91423 15.5163 2.96021 15.5054 3.00406C15.4945 3.0479 15.4719 3.08797 15.44 3.12L14.067 4.494C13.9027 4.65796 13.6801 4.75004 13.448 4.75H12.31L9.45 7.611C9.50456 7.81702 9.5146 8.0323 9.47943 8.24251C9.44427 8.45271 9.36472 8.65301 9.24607 8.83006C9.12743 9.0071 8.97242 9.15684 8.79137 9.26928C8.61032 9.38172 8.40739 9.45429 8.19609 9.48215C7.98479 9.51001 7.76999 9.49253 7.56598 9.43086C7.36197 9.3692 7.17344 9.26476 7.01296 9.12452C6.85248 8.98428 6.72372 8.81145 6.63527 8.61755C6.54682 8.42365 6.50071 8.21312 6.5 8C6.50015 7.76989 6.55321 7.54289 6.65506 7.33656C6.75692 7.13022 6.90486 6.95006 7.08744 6.81001C7.27002 6.66996 7.48236 6.57376 7.70804 6.52885C7.93372 6.48394 8.16671 6.49152 8.389 6.551L11.25 3.689V2.552C11.25 2.32 11.342 2.097 11.506 1.933L12.88 0.558997C12.912 0.527126 12.9521 0.50453 12.9959 0.493613C13.0398 0.482696 13.0858 0.483865 13.129 0.496997C13.218 0.522997 13.284 0.596997 13.302 0.686997L13.637 2.363Z" fill="url(#paint0_linear_1743_9743)"/>
<path d="M2.00019 7.99998C2.00122 8.85794 2.18623 9.70571 2.54276 10.4861C2.89928 11.2665 3.41902 11.9613 4.06692 12.5237C4.71481 13.0862 5.47579 13.5031 6.29852 13.7464C7.12126 13.9898 7.98661 14.0538 8.8362 13.9343C9.68579 13.8147 10.4999 13.5144 11.2235 13.0534C11.9471 12.5925 12.5635 11.9818 13.0311 11.2624C13.4986 10.543 13.8064 9.73174 13.9337 8.88328C14.0611 8.03481 14.005 7.16891 13.7692 6.34398C13.7361 6.24761 13.7229 6.1455 13.7306 6.04388C13.7382 5.94226 13.7664 5.84326 13.8135 5.7529C13.8606 5.66253 13.9256 5.5827 14.0045 5.51826C14.0835 5.45382 14.1747 5.40612 14.2727 5.37806C14.3706 5.35 14.4733 5.34217 14.5744 5.35505C14.6755 5.36793 14.7729 5.40125 14.8607 5.45298C14.9485 5.5047 15.0248 5.57376 15.0851 5.65594C15.1453 5.73811 15.1883 5.8317 15.2112 5.93098C15.6677 7.52851 15.581 9.23239 14.9646 10.7753C14.3483 12.3182 13.2372 13.6129 11.8056 14.4562C10.374 15.2995 8.70303 15.6437 7.05474 15.4348C5.40644 15.2259 3.87413 14.4757 2.69819 13.302C1.52353 12.1263 0.772564 10.5939 0.563193 8.9452C0.353821 7.29652 0.697902 5.625 1.54141 4.19306C2.38492 2.76111 3.68009 1.64985 5.22358 1.03372C6.76707 0.417602 8.47147 0.331516 10.0692 0.788983C10.2594 0.844595 10.4199 0.973251 10.5156 1.14684C10.6113 1.32042 10.6343 1.52482 10.5798 1.71536C10.5252 1.9059 10.3974 2.0671 10.2244 2.16371C10.0513 2.26033 9.84703 2.28452 9.65619 2.23098C8.76277 1.97465 7.82202 1.92935 6.90811 2.09865C5.99419 2.26795 5.13209 2.64723 4.38978 3.20658C3.64747 3.76593 3.04523 4.49007 2.63055 5.3219C2.21587 6.15373 2.00008 7.07052 2.00019 7.99998Z" fill="url(#paint1_linear_1743_9743)"/>
<path d="M4.99999 7.99999C5.00005 8.54658 5.14934 9.08278 5.43175 9.55075C5.71417 10.0187 6.11899 10.4007 6.60256 10.6555C7.08613 10.9103 7.63008 11.0283 8.17576 10.9966C8.72143 10.965 9.24811 10.785 9.69899 10.476C10.1498 10.1662 10.5073 9.73912 10.7329 9.24085C10.9585 8.74258 11.0436 8.19212 10.979 7.64899C10.9615 7.51719 10.9795 7.38311 11.031 7.26056C11.0826 7.13802 11.1659 7.03143 11.2723 6.95177C11.3788 6.87211 11.5045 6.82226 11.6367 6.80736C11.7688 6.79246 11.9025 6.81304 12.024 6.86699C12.1455 6.92023 12.2507 7.00474 12.3289 7.1119C12.407 7.21906 12.4554 7.34504 12.469 7.47699C12.5776 8.40509 12.3947 9.34399 11.9455 10.1634C11.4963 10.9828 10.8032 11.642 9.96233 12.0496C9.12147 12.4572 8.17458 12.5929 7.25308 12.4379C6.33159 12.2829 5.4812 11.8449 4.81995 11.1846C4.1587 10.5244 3.71939 9.67468 3.56299 8.75342C3.40659 7.83216 3.54087 6.88507 3.94718 6.04358C4.35348 5.2021 5.01167 4.50798 5.83038 4.05755C6.6491 3.60712 7.58773 3.42274 8.51599 3.52999C8.61538 3.53921 8.71194 3.56818 8.79999 3.6152C8.88805 3.66222 8.96583 3.72635 9.02878 3.80382C9.09172 3.88129 9.13857 3.97055 9.16658 4.06636C9.19458 4.16218 9.20318 4.26262 9.19186 4.3618C9.18055 4.46097 9.14955 4.5569 9.10068 4.64394C9.05181 4.73098 8.98606 4.80739 8.90728 4.86869C8.8285 4.93 8.73827 4.97495 8.64189 5.00093C8.54551 5.02691 8.44491 5.03339 8.34599 5.01999C7.92565 4.97118 7.49973 5.01185 7.09623 5.13933C6.69272 5.26681 6.32075 5.47822 6.00474 5.75966C5.68873 6.0411 5.43584 6.38621 5.26267 6.77233C5.08951 7.15844 4.99999 7.57682 4.99999 7.99999Z" fill="url(#paint2_linear_1743_9743)"/>
</g>
<defs>
<linearGradient id="paint0_linear_1743_9743" x1="6.68666" y1="6.05416" x2="15.5128" y2="6.05416" gradientUnits="userSpaceOnUse">
<stop stop-color="#4768DB"/>
<stop offset="1" stop-color="#EC89FF"/>
</linearGradient>
<linearGradient id="paint1_linear_1743_9743" x1="0.813997" y1="9.76702" x2="15.4999" y2="9.76702" gradientUnits="userSpaceOnUse">
<stop stop-color="#4768DB"/>
<stop offset="1" stop-color="#EC89FF"/>
</linearGradient>
<linearGradient id="paint2_linear_1743_9743" x1="3.6859" y1="9.06275" x2="12.4995" y2="9.06275" gradientUnits="userSpaceOnUse">
<stop stop-color="#4768DB"/>
<stop offset="1" stop-color="#EC89FF"/>
</linearGradient>
<clipPath id="clip0_1743_9743">
<rect width="16" height="16" fill="white"/>
</clipPath>
</defs>
</svg>
