<svg width="100" height="100" viewBox="0 0 100 100" fill="none" xmlns="http://www.w3.org/2000/svg">
<circle cx="50" cy="50" r="50" fill="#F6F6F6"/>
<g clip-path="url(#clip0_1732_11901)">
<path d="M48.3627 25.0135C48.2551 25.0232 47.913 25.0574 47.6051 25.0819C40.5034 25.7221 33.8514 29.5534 29.6383 35.442C27.2923 38.7162 25.7918 42.4303 25.2248 46.3642C25.0244 47.7374 25 48.143 25 50.0049C25 51.8668 25.0244 52.2724 25.2248 53.6456C26.5836 63.0333 33.2649 70.9207 42.3265 73.843C43.9492 74.3659 45.6598 74.7227 47.6051 74.9377C48.3627 75.0208 51.6373 75.0208 52.3949 74.9377C55.7527 74.5663 58.5973 73.7355 61.4027 72.3037C61.8328 72.0838 61.9159 72.0251 61.8573 71.9762C61.8182 71.9469 59.9853 69.4888 57.7859 66.5176L53.7879 61.1176L48.7781 53.7043C46.0215 49.6286 43.7537 46.2958 43.7341 46.2958C43.7146 46.2909 43.695 49.5846 43.6852 53.6065C43.6706 60.6485 43.6657 60.9319 43.5777 61.0981C43.4506 61.3375 43.3529 61.4353 43.1476 61.5428C42.9912 61.621 42.8543 61.6356 42.1163 61.6356H41.2708L41.0459 61.4939C40.8993 61.4011 40.7918 61.2789 40.7185 61.1372L40.6158 60.9173L40.6256 51.1191L40.6403 41.316L40.7918 41.1255C40.87 41.0228 41.0362 40.8909 41.1535 40.8274C41.3539 40.7296 41.4321 40.7198 42.2776 40.7198C43.2747 40.7198 43.4409 40.7589 43.6999 41.0424C43.7732 41.1206 46.4858 45.206 49.7312 50.1271C52.9765 55.0481 57.4145 61.7676 59.5943 65.0662L63.5533 71.0624L63.7537 70.9305C65.5279 69.7772 67.4047 68.1352 68.8905 66.4248C72.0528 62.7938 74.0909 58.3663 74.7752 53.6456C74.9756 52.2724 75 51.8668 75 50.0049C75 48.143 74.9756 47.7374 74.7752 46.3642C73.4164 36.9765 66.7351 29.0891 57.6735 26.1668C56.0753 25.6487 54.3744 25.292 52.4682 25.077C51.999 25.0281 48.7683 24.9744 48.3627 25.0135ZM58.5973 40.1334C58.8319 40.2507 59.0225 40.4755 59.0909 40.7101C59.13 40.8371 59.1398 43.5542 59.13 49.6775L59.1153 58.4641L57.566 56.089L56.0117 53.714V47.3269C56.0117 43.1975 56.0313 40.8762 56.0606 40.7638C56.1388 40.4902 56.3099 40.2751 56.5445 40.1481C56.7449 40.0455 56.8182 40.0357 57.5855 40.0357C58.3089 40.0357 58.436 40.0455 58.5973 40.1334Z" fill="black"/>
</g>
<defs>
<clipPath id="clip0_1732_11901">
<rect width="50" height="50" fill="white" transform="translate(25 25)"/>
</clipPath>
</defs>
</svg>
