<svg width="100" height="100" viewBox="0 0 100 100" fill="none" xmlns="http://www.w3.org/2000/svg">
<circle cx="50" cy="50" r="50" fill="#F6F6F6"/>
<path d="M54.186 49.9622C54.186 47.721 52.3121 45.9038 50.0002 45.9038C47.6887 45.9038 45.8145 47.721 45.8145 49.9622C45.8145 52.2038 47.6887 54.0208 50.0002 54.0208C52.3121 54.0208 54.186 52.2038 54.186 49.9622Z" fill="#53C1DE"/>
<path fill-rule="evenodd" clip-rule="evenodd" d="M63.5944 42.4277C64.4783 38.945 65.5894 32.4867 61.6725 30.2971C57.7739 28.1171 52.7006 32.2944 50.0217 34.8018C47.3506 32.3194 42.1348 28.16 38.2213 30.3565C34.3242 32.5438 35.526 38.895 36.4295 42.3995C32.7942 43.4006 26.5625 45.5569 26.5625 49.9623C26.5625 54.3553 32.7877 56.7012 36.4015 57.7014C35.4947 61.2253 34.3531 67.4858 38.2551 69.6683C42.1833 71.8644 47.3828 67.8039 50.0866 65.2691C52.7827 67.7912 57.8072 71.8783 61.7066 69.6897C65.6181 67.4942 64.5994 61.1225 63.6958 57.5977C67.1989 56.5953 73.4375 54.3005 73.4375 49.9623C73.4375 45.5992 67.1723 43.4255 63.5944 42.4277ZM63.1503 55.7297C62.557 53.9087 61.7563 51.9723 60.7767 49.972C61.7117 48.0189 62.4814 46.1075 63.0581 44.2983C65.6811 45.0356 71.4352 46.7208 71.4352 49.9623C71.4352 53.2344 65.9134 54.9355 63.1503 55.7297ZM60.7031 68.0094C57.7938 69.6422 53.472 65.7337 51.4809 63.8764C52.8019 62.4756 54.1219 60.8472 55.4102 59.0389C57.6764 58.8441 59.8172 58.5253 61.7588 58.0902C62.3947 60.5834 63.6253 66.3692 60.7031 68.0094ZM39.2557 67.9861C36.346 66.3594 37.6759 60.7728 38.3431 58.177C40.263 58.5889 42.3884 58.8852 44.66 59.0637C45.9567 60.8331 47.315 62.4595 48.6838 63.8839C46.9927 65.47 42.1789 69.6203 39.2557 67.9861ZM28.5648 49.9623C28.5648 46.6781 34.2845 45.0052 36.9672 44.2697C37.5539 46.1195 38.3234 48.0537 39.2519 50.0097C38.3113 51.9947 37.5309 53.9595 36.9388 55.8312C34.3808 55.1212 28.5648 53.2486 28.5648 49.9623ZM39.2245 32.0368C42.1461 30.3971 46.6792 34.3904 48.6186 36.1877C47.2569 37.6055 45.9111 39.2197 44.6255 40.9789C42.4209 41.177 40.3105 41.4952 38.3705 41.9214C37.6426 39.0949 36.3061 33.6747 39.2245 32.0368ZM56.8427 43.0892C58.3383 43.2722 59.7713 43.5156 61.1167 43.8134C60.7128 45.0687 60.2094 46.3814 59.6164 47.727C58.7569 46.1458 57.8342 44.5962 56.8427 43.0892ZM50.0223 37.5752C50.9459 38.5453 51.8709 39.6286 52.7809 40.8039C50.9352 40.7192 49.0864 40.7189 47.2406 40.8027C48.1514 39.6382 49.0844 38.5565 50.0223 37.5752ZM40.4008 47.7256C39.8176 46.3847 39.3187 45.0662 38.9113 43.793C40.2487 43.5028 41.675 43.2656 43.1609 43.0856C42.1666 44.5894 41.2455 46.1383 40.4008 47.7256ZM43.2036 56.9777C41.6686 56.8116 40.2207 56.5864 38.8837 56.3042C39.2976 55.0086 39.8075 53.6617 40.4031 52.2919C41.2594 53.8958 42.1945 55.4597 43.2036 56.9777ZM50.0778 62.4867C49.1288 61.4937 48.182 60.3955 47.2575 59.2142C49.1137 59.2848 50.9736 59.285 52.8297 59.2047C51.9169 60.4075 50.9952 61.5073 50.0778 62.4867ZM59.6355 52.2222C60.262 53.6069 60.7902 54.9464 61.2097 56.2202C59.8505 56.5209 58.3831 56.7631 56.837 56.943C57.8359 55.4073 58.7733 53.8337 59.6355 52.2222ZM54.2927 57.1783C51.4533 57.375 48.5963 57.3728 45.7559 57.1944C44.142 54.9086 42.7053 52.5047 41.4652 50.0091C42.6994 47.5186 44.1256 45.1194 45.7319 42.8372C48.5742 42.6289 51.4341 42.6283 54.2764 42.8384C55.8689 45.1205 57.293 47.5134 58.5558 49.9814C57.308 52.4706 55.8742 54.8747 54.2927 57.1783ZM60.6723 31.9791C63.5947 33.6133 62.2939 39.4176 61.6555 41.9416C59.7108 41.5064 57.5989 41.1827 55.388 40.9814C54.0998 39.2032 52.7653 37.5862 51.4256 36.1867C53.3898 34.3506 57.7783 30.3608 60.6723 31.9791Z" fill="#53C1DE"/>
</svg>
