<svg width="100" height="100" viewBox="0 0 100 100" fill="none" xmlns="http://www.w3.org/2000/svg">
<circle cx="50" cy="50" r="50" fill="#F6F6F6"/>
<g clip-path="url(#clip0_1732_11961)">
<path d="M50 75C63.8071 75 75 63.8071 75 50C75 36.1929 63.8071 25 50 25C36.1929 25 25 36.1929 25 50C25 63.8071 36.1929 75 50 75Z" fill="#13AA52"/>
<path d="M56.6832 46.9453C55.1041 39.9761 51.3721 37.6846 50.9703 36.8091C50.5308 36.1914 50.0855 35.0928 50.0855 35.0928C50.0782 35.0742 50.0665 35.0415 50.0528 35.0098C50.0074 35.6274 49.9839 35.8657 49.4 36.4888C48.4957 37.1958 43.856 41.0889 43.4786 49.0068C43.1265 56.3916 48.813 60.792 49.5821 61.353L49.6695 61.415V61.4097C49.6744 61.4468 49.9136 63.1675 50.0816 64.9907H50.6841C50.8255 63.7019 51.0374 62.4219 51.3189 61.1562L51.3677 61.1245C51.7117 60.8779 52.0397 60.6096 52.3497 60.3213L52.3848 60.2896C54.0196 58.7793 56.9585 55.2861 56.9297 49.7168C56.9237 48.7878 56.8412 47.8608 56.6832 46.9453ZM50.0176 57.1836C50.0176 57.1836 50.0176 46.8262 50.3594 46.8281C50.626 46.8281 50.9712 60.188 50.9712 60.188C50.4966 60.1309 50.0176 57.9893 50.0176 57.1836Z" fill="white"/>
</g>
<defs>
<clipPath id="clip0_1732_11961">
<rect width="50" height="50" fill="white" transform="translate(25 25)"/>
</clipPath>
</defs>
</svg>
