<svg width="100" height="100" viewBox="0 0 100 100" fill="none" xmlns="http://www.w3.org/2000/svg">
<circle cx="50" cy="50" r="50" fill="#F6F6F6"/>
<path d="M32.0312 69.9219L27.9297 25H71.9727L67.9688 69.9219L50 75" fill="#264DE4"/>
<path d="M50 28.6133V71.0938L64.5508 67.0898L67.9688 28.6133" fill="#2965F1"/>
<path d="M36.1328 34.1797H50V39.6484H36.6211M37.1094 45.3125H50V50.8789H37.5977M37.8906 53.6133H43.3594L43.75 58.0078L50 59.668V65.4297L38.5742 62.3047" fill="#EBEBEB"/>
<path d="M50 45.3125V50.8789H56.7383L56.0547 58.0078L50 59.668V65.4297L61.2305 62.3047L63.7695 34.1797H50V39.6484H57.8125L57.2754 45.3125H50Z" fill="white"/>
</svg>
