<svg width="100" height="100" viewBox="0 0 100 100" fill="none" xmlns="http://www.w3.org/2000/svg">
<circle cx="50" cy="50" r="50" fill="#F6F6F6"/>
<path d="M59.0419 58.6812C60.7717 58.5051 62.0841 57.039 62.0244 55.2795C61.9648 53.5202 60.4734 52.1127 58.6839 52.1127H58.5647C56.7153 52.1713 55.2839 53.6962 55.3436 55.5142C55.4033 56.3938 55.7611 57.1562 56.298 57.684C54.2698 61.6134 51.168 64.487 46.5153 66.8915C43.3537 68.5335 40.0731 69.1201 36.7924 68.7096C34.1081 68.3577 32.0203 67.1849 30.7078 65.2493C28.7991 62.3757 28.6202 59.2674 30.2308 56.1593C31.3642 53.9307 33.1536 52.2885 34.287 51.4674C34.0484 50.7051 33.6904 49.4149 33.5115 48.4767C24.8622 54.6345 25.757 62.9623 28.3817 66.8915C30.35 69.8238 34.3467 71.642 38.7608 71.642C39.9537 71.642 41.1467 71.5245 42.3398 71.2315C49.9752 69.7652 55.7612 65.3081 59.0419 58.6812ZM69.5405 51.409C65.007 46.1895 58.3261 43.3159 50.6908 43.3159H49.7366C49.1997 42.2602 48.0662 41.5563 46.8136 41.5563H46.6942C44.8452 41.6151 43.4137 43.1398 43.4733 44.9579C43.533 46.7173 45.0241 48.1248 46.8136 48.1248H46.9328C48.2452 48.0662 49.3786 47.2451 49.8558 46.1307H50.9294C55.463 46.1307 59.7577 47.4209 63.6352 49.9427C66.6175 51.8781 68.765 54.3999 69.958 57.4495C70.972 59.9126 70.9123 62.3171 69.8386 64.3698C68.1684 67.4779 65.365 69.1787 61.6666 69.1787C59.2805 69.1787 57.0139 68.4749 55.8208 67.9471C55.1647 68.5335 53.9716 69.4718 53.1364 70.0585C55.7016 71.2313 58.3261 71.8765 60.8314 71.8765C66.5578 71.8765 70.7931 68.7681 72.4038 65.6599C74.1334 62.2584 74.0141 56.3938 69.5405 51.409ZM39.238 59.6779C39.2977 61.4373 40.7889 62.8446 42.5784 62.8446H42.6978C44.5469 62.7862 45.9784 61.2613 45.9187 59.4434C45.8592 57.6838 44.3678 56.2765 42.5784 56.2765H42.4592C42.3398 56.2765 42.1608 56.2765 42.0417 56.3349C39.5959 52.3471 38.5819 48.0074 38.9399 43.3157C39.1783 39.7969 40.3714 36.7472 42.4592 34.2254C44.1889 32.0555 47.5294 30.9999 49.7962 30.9414C56.1191 30.824 58.8031 38.5652 58.9822 41.6735C59.7577 41.8495 61.07 42.2601 61.9648 42.5534C61.2489 33.0528 55.2839 28.1265 49.5577 28.1265C44.1889 28.1265 39.238 31.9385 37.2694 37.5685C34.5256 45.0751 36.3151 52.2885 39.6555 57.9773C39.3574 58.3877 39.1783 59.0327 39.238 59.6779Z" fill="#764ABC"/>
</svg>
