<svg width="100" height="100" viewBox="0 0 100 100" fill="none" xmlns="http://www.w3.org/2000/svg">
<circle cx="50" cy="50" r="50" fill="#F6F6F6"/>
<g clip-path="url(#clip0_1732_11906)">
<path d="M67.5 25H32.5C28.3579 25 25 28.3579 25 32.5V67.5C25 71.6421 28.3579 75 32.5 75H67.5C71.6421 75 75 71.6421 75 67.5V32.5C75 28.3579 71.6421 25 67.5 25Z" fill="#3178C6"/>
<path d="M47.7539 52.7344H54.0039V48.7305H36.5234V52.7344H42.7734V70.6055H47.7539V52.7344ZM55.957 69.6289C56.748 70.0391 57.7148 70.3418 58.7891 70.5469C59.8633 70.752 61.0352 70.8496 62.207 70.8496C63.3789 70.8496 64.4531 70.7422 65.5273 70.5176C66.6016 70.293 67.4805 69.9219 68.2617 69.4434C69.0527 68.9258 69.7266 68.2715 70.1172 67.3926C70.5078 66.5137 70.8105 65.5371 70.8105 64.2676C70.8105 63.3789 70.6738 62.6074 70.4102 61.9238C70.1465 61.2402 69.7656 60.6543 69.2383 60.166C68.7402 59.6484 68.1641 59.1895 67.4805 58.7988C66.7969 58.4082 66.0156 57.998 65.1367 57.627C64.4922 57.3633 63.9648 57.1094 63.3789 56.8555C62.8711 56.6016 62.4316 56.3477 62.1094 56.0937C61.748 55.8301 61.4746 55.5566 61.2793 55.2734C61.084 54.9805 60.9863 54.6582 60.9863 54.2969C60.9863 53.9648 61.0732 53.6621 61.25 53.3887C61.4268 53.1152 61.6699 52.8906 61.9824 52.6953C62.2949 52.5 62.6855 52.3535 63.1543 52.2461C63.6133 52.1387 64.1211 52.0898 64.7168 52.0898C65.127 52.0898 65.5566 52.1201 65.9863 52.1816C66.4355 52.2432 66.8945 52.3379 67.3535 52.4648C67.8125 52.5918 68.2617 52.748 68.7207 52.9434C69.1504 53.1387 69.5508 53.3633 69.8926 53.6172V49.0273C69.1504 48.7441 68.3301 48.5293 67.4512 48.3926C66.5723 48.2559 65.5957 48.1875 64.4238 48.1875C63.252 48.1875 62.1777 48.3145 61.1035 48.5586C60.0293 48.8027 59.1504 49.1934 58.3691 49.7305C57.5781 50.2578 57.002 50.9023 56.5137 51.7812C56.0547 52.6016 55.8301 53.5391 55.8301 54.7109C55.8301 56.1758 56.25 57.4453 57.0996 58.4219C57.9395 59.4961 59.248 60.2773 60.9082 61.0586C61.582 61.332 62.1777 61.6055 62.7637 61.8691C63.3496 62.1328 63.8379 62.4062 64.2285 62.6895C64.6484 62.9727 64.9805 63.2852 65.2051 63.6172C65.4492 63.9492 65.5762 64.3398 65.5762 64.7891C65.5762 65.1016 65.5 65.3945 65.3516 65.668C65.2031 65.9414 64.9707 66.1758 64.6582 66.3711C64.3457 66.5664 63.9648 66.7227 63.4863 66.8398C63.0273 66.9473 62.5098 67.0059 61.8262 67.0059C60.752 67.0059 59.6777 66.8203 58.7012 66.4492C57.627 66.0781 56.6504 65.5215 55.957 64.9414V69.6289Z" fill="white"/>
</g>
<defs>
<clipPath id="clip0_1732_11906">
<rect width="50" height="50" fill="white" transform="translate(25 25)"/>
</clipPath>
</defs>
</svg>
