<svg width="100" height="100" viewBox="0 0 100 100" fill="none" xmlns="http://www.w3.org/2000/svg">
<circle cx="50" cy="50" r="50" fill="#F6F6F6"/>
<path d="M29.0396 52.2081C27.8201 50.9886 27.8201 49.0114 29.0396 47.7919L47.7919 29.0396C49.0114 27.8201 50.9886 27.8201 52.2081 29.0396L70.9603 47.7919C72.1798 49.0114 72.1798 50.9886 70.9603 52.2081L52.2081 70.9603C50.9886 72.1798 49.0114 72.1798 47.7919 70.9603L29.0396 52.2081Z" fill="#EE513B"/>
<path d="M43.9829 32.9087L42.084 34.8077L46.9885 39.7122C46.7901 40.1379 46.6793 40.6126 46.6793 41.1132C46.6793 42.5344 47.5723 43.7471 48.8277 44.2207V56.2185C47.5723 56.6921 46.6793 57.9048 46.6793 59.326C46.6793 61.1598 48.1659 62.6463 49.9996 62.6463C51.8334 62.6463 53.3199 61.1598 53.3199 59.326C53.3199 58.0376 52.586 56.9204 51.5134 56.3701V44.2371L56.2016 48.9254C56.0129 49.3424 55.9079 49.8054 55.9079 50.2929C55.9079 52.1266 57.3945 53.6132 59.2282 53.6132C61.062 53.6132 62.5485 52.1266 62.5485 50.2929C62.5485 48.4591 61.062 46.9726 59.2282 46.9726C58.8718 46.9726 58.5287 47.0287 58.2068 47.1326L53.1716 42.0974C53.268 41.7865 53.3199 41.4558 53.3199 41.1132C53.3199 39.2794 51.8334 37.7928 49.9996 37.7928C49.657 37.7928 49.3265 37.8448 49.0154 37.9412L43.9829 32.9087Z" fill="white"/>
</svg>
