<svg width="100" height="100" viewBox="0 0 100 100" fill="none" xmlns="http://www.w3.org/2000/svg">
<circle cx="50" cy="50" r="50" fill="#F6F6F6"/>
<g clip-path="url(#clip0_1732_11946)">
<path fill-rule="evenodd" clip-rule="evenodd" d="M49.9984 25.521C36.1937 25.521 25 36.7575 25 50.6216C25 61.7092 32.1625 71.1167 42.0984 74.436C43.3484 74.6666 43.8047 73.8916 43.8047 73.2265C43.8047 72.6304 43.7828 71.0523 43.7703 68.9581C36.8156 70.4751 35.3484 65.5933 35.3484 65.5933C34.2125 62.6944 32.5734 61.9226 32.5734 61.9226C30.3031 60.3648 32.7453 60.3962 32.7453 60.3962C35.2531 60.5734 36.5734 62.983 36.5734 62.983C38.8047 66.8184 42.425 65.7109 43.85 65.0678C44.0766 63.4457 44.7234 62.3398 45.4375 61.7124C39.8859 61.0786 34.05 58.9263 34.05 49.3087C34.05 46.5682 35.0234 44.3281 36.6234 42.5727C36.3656 41.9374 35.5078 39.3867 36.8672 35.9309C36.8672 35.9309 38.9672 35.2563 43.7422 38.5035C45.7375 37.9466 47.875 37.6689 50.0016 37.658C52.125 37.6689 54.2641 37.9466 56.2609 38.5035C61.0328 35.2563 63.1282 35.9309 63.1282 35.9309C64.4922 39.3867 63.6344 41.9374 63.3766 42.5727C64.9797 44.3281 65.9469 46.5682 65.9469 49.3087C65.9469 58.9499 60.1016 61.0723 54.5328 61.6935C55.4297 62.4684 56.2297 63.9995 56.2297 66.3416C56.2297 69.697 56.1984 72.403 56.1984 73.2265C56.1984 73.8979 56.6485 74.6791 57.9172 74.4329C67.8438 71.1072 75 61.706 75 50.6216C75 36.7575 63.8062 25.521 49.9984 25.521Z" fill="#3E75C3"/>
</g>
<defs>
<clipPath id="clip0_1732_11946">
<rect width="50" height="50" fill="white" transform="translate(25 25)"/>
</clipPath>
</defs>
</svg>
