<svg width="100" height="100" viewBox="0 0 100 100" fill="none" xmlns="http://www.w3.org/2000/svg">
<circle cx="50" cy="50" r="50" fill="#F6F6F6"/>
<path d="M39.0625 46.4062C40.5208 40.5729 44.1667 37.6562 50 37.6562C58.75 37.6562 59.8438 44.2187 64.2188 45.3125C67.1354 46.0417 69.6875 44.9479 71.875 42.0312C70.4167 47.8646 66.7708 50.7812 60.9375 50.7812C52.1875 50.7812 51.0938 44.2188 46.7188 43.125C43.8021 42.3958 41.25 43.4896 39.0625 46.4062ZM28.125 59.5312C29.5833 53.6979 33.2292 50.7812 39.0625 50.7812C47.8125 50.7812 48.9062 57.3437 53.2812 58.4375C56.1979 59.1667 58.75 58.0729 60.9375 55.1562C59.4792 60.9896 55.8333 63.9062 50 63.9062C41.25 63.9062 40.1562 57.3438 35.7812 56.25C32.8646 55.5208 30.3125 56.6146 28.125 59.5312Z" fill="#44A8B3"/>
</svg>
