<svg width="100" height="100" viewBox="0 0 100 100" fill="none" xmlns="http://www.w3.org/2000/svg">
<circle cx="50" cy="50" r="50" fill="#F6F6F6"/>
<path d="M50.0008 74.9072C49.3131 74.9072 48.6712 74.7238 48.0751 74.4029L41.9771 70.7808C41.0601 70.2764 41.5186 70.093 41.7937 70.0013C43.0317 69.5887 43.2609 69.497 44.5447 68.7634C44.6823 68.6717 44.8656 68.7175 45.0032 68.8092L49.6798 71.6061C49.8632 71.6978 50.0925 71.6978 50.23 71.6061L68.524 61.0148C68.7074 60.9231 68.7991 60.7397 68.7991 60.5105V39.3738C68.7991 39.1446 68.7074 38.9612 68.524 38.8695L50.23 28.3241C50.0466 28.2324 49.8174 28.2324 49.6798 28.3241L31.3859 38.8695C31.2025 38.9612 31.1108 39.1904 31.1108 39.3738V60.5105C31.1108 60.6939 31.2025 60.9231 31.3859 61.0148L36.3835 63.9033C39.0886 65.2788 40.785 63.6741 40.785 62.0694V41.2078C40.785 40.9327 41.0143 40.6576 41.3352 40.6576H43.6736C43.9487 40.6576 44.2238 40.8869 44.2238 41.2078V62.0694C44.2238 65.6915 42.2522 67.8005 38.8135 67.8005C37.759 67.8005 36.9337 67.8005 34.5954 66.6543L29.7811 63.9033C28.5891 63.2156 27.8555 61.9318 27.8555 60.5563V39.4197C27.8555 38.0442 28.5891 36.7604 29.7811 36.0727L48.0751 25.4814C49.2214 24.8395 50.7802 24.8395 51.9265 25.4814L70.2204 36.0727C71.4125 36.7604 72.1461 38.0442 72.1461 39.4197V60.5563C72.1461 61.9318 71.4125 63.2156 70.2204 63.9033L51.9265 74.4946C51.3304 74.7697 50.6427 74.9072 50.0008 74.9072ZM55.6403 60.3729C47.6166 60.3729 45.966 56.705 45.966 53.5872C45.966 53.3121 46.1953 53.037 46.5162 53.037H48.9004C49.1755 53.037 49.4048 53.2204 49.4048 53.4955C49.7715 55.9255 50.8261 57.1176 55.6861 57.1176C59.5375 57.1176 61.1881 56.2465 61.1881 54.1832C61.1881 52.9911 60.7296 52.12 54.7233 51.524C49.7257 51.0196 46.6079 49.9192 46.6079 45.9303C46.6079 42.2165 49.7257 40.0157 54.9525 40.0157C60.8213 40.0157 63.7098 42.0331 64.0766 46.4347C64.0766 46.5722 64.0308 46.7098 63.9391 46.8473C63.8474 46.939 63.7098 47.0307 63.5723 47.0307H61.1881C60.9588 47.0307 60.7296 46.8473 60.6837 46.6181C60.1335 44.0963 58.7122 43.271 54.9525 43.271C50.7344 43.271 50.23 44.7382 50.23 45.8386C50.23 47.1683 50.8261 47.5809 56.5114 48.3145C62.1509 49.0481 64.8102 50.1026 64.8102 54.0457C64.7644 58.0804 61.4632 60.3729 55.6403 60.3729Z" fill="#539E43"/>
</svg>
