<svg width="100" height="101" viewBox="0 0 100 101" fill="none" xmlns="http://www.w3.org/2000/svg">
<circle cx="50" cy="50.5" r="50" fill="#222330"/>
<g clip-path="url(#clip0_1727_5399)">
<path fill-rule="evenodd" clip-rule="evenodd" d="M49.9984 26.021C36.1937 26.021 25 37.2575 25 51.1216C25 62.2092 32.1625 71.6167 42.0984 74.936C43.3484 75.1666 43.8047 74.3916 43.8047 73.7265C43.8047 73.1304 43.7828 71.5523 43.7703 69.4581C36.8156 70.9751 35.3484 66.0933 35.3484 66.0933C34.2125 63.1944 32.5734 62.4226 32.5734 62.4226C30.3031 60.8648 32.7453 60.8962 32.7453 60.8962C35.2531 61.0734 36.5734 63.483 36.5734 63.483C38.8047 67.3184 42.425 66.2109 43.85 65.5678C44.0766 63.9457 44.7234 62.8398 45.4375 62.2124C39.8859 61.5786 34.05 59.4263 34.05 49.8087C34.05 47.0682 35.0234 44.8281 36.6234 43.0727C36.3656 42.4374 35.5078 39.8867 36.8672 36.4309C36.8672 36.4309 38.9672 35.7563 43.7422 39.0035C45.7375 38.4466 47.875 38.1689 50.0016 38.158C52.125 38.1689 54.2641 38.4466 56.2609 39.0035C61.0328 35.7563 63.1282 36.4309 63.1282 36.4309C64.4922 39.8867 63.6344 42.4374 63.3766 43.0727C64.9797 44.8281 65.9469 47.0682 65.9469 49.8087C65.9469 59.4499 60.1016 61.5723 54.5328 62.1935C55.4297 62.9684 56.2297 64.4995 56.2297 66.8416C56.2297 70.197 56.1984 72.903 56.1984 73.7265C56.1984 74.3979 56.6485 75.1791 57.9172 74.9329C67.8438 71.6072 75 62.206 75 51.1216C75 37.2575 63.8062 26.021 49.9984 26.021Z" fill="#676984"/>
</g>
<defs>
<clipPath id="clip0_1727_5399">
<rect width="50" height="50" fill="white" transform="translate(25 25.5)"/>
</clipPath>
</defs>
</svg>
