<svg width="100" height="101" viewBox="0 0 100 101" fill="none" xmlns="http://www.w3.org/2000/svg">
<circle cx="50" cy="50.5" r="50" fill="#222330"/>
<path d="M29.0396 52.7081C27.8201 51.4886 27.8201 49.5114 29.0396 48.2919L47.7919 29.5396C49.0114 28.3201 50.9886 28.3201 52.2081 29.5396L70.9603 48.2919C72.1798 49.5114 72.1798 51.4886 70.9603 52.7081L52.2081 71.4603C50.9886 72.6798 49.0114 72.6798 47.7919 71.4603L29.0396 52.7081Z" fill="#676984"/>
<path d="M43.9829 33.4087L42.084 35.3077L46.9885 40.2122C46.7901 40.6379 46.6793 41.1126 46.6793 41.6132C46.6793 43.0344 47.5723 44.2471 48.8277 44.7207V56.7185C47.5723 57.1921 46.6793 58.4048 46.6793 59.826C46.6793 61.6598 48.1659 63.1463 49.9996 63.1463C51.8334 63.1463 53.3199 61.6598 53.3199 59.826C53.3199 58.5376 52.586 57.4204 51.5134 56.8701V44.7371L56.2016 49.4254C56.0129 49.8424 55.9079 50.3054 55.9079 50.7929C55.9079 52.6266 57.3945 54.1132 59.2282 54.1132C61.062 54.1132 62.5485 52.6266 62.5485 50.7929C62.5485 48.9591 61.062 47.4726 59.2282 47.4726C58.8718 47.4726 58.5287 47.5287 58.2068 47.6326L53.1716 42.5974C53.268 42.2865 53.3199 41.9558 53.3199 41.6132C53.3199 39.7794 51.8334 38.2928 49.9996 38.2928C49.657 38.2928 49.3265 38.3448 49.0154 38.4412L43.9829 33.4087Z" fill="white"/>
</svg>
