<svg width="100" height="101" viewBox="0 0 100 101" fill="none" xmlns="http://www.w3.org/2000/svg">
<circle cx="50" cy="50.5" r="50" fill="#222330"/>
<g clip-path="url(#clip0_1727_5363)">
<path d="M32.0312 70.4219L27.9297 25.5H71.9727L67.9688 70.4219L50 75.5" fill="#676984"/>
<path d="M50 29.1133V71.5938L64.5508 67.5898L67.9688 29.1133" fill="#676984"/>
<path d="M36.1328 34.6797H50V40.1484H36.6211M37.1094 45.8125H50V51.3789H37.5977M37.8906 54.1133H43.3594L43.75 58.5078L50 60.168V65.9297L38.5742 62.8047" fill="white"/>
<path d="M50 45.8125V51.3789H56.7383L56.0547 58.5078L50 60.168V65.9297L61.2305 62.8047L63.7695 34.6797H50V40.1484H57.8125L57.2754 45.8125H50Z" fill="white"/>
</g>
<defs>
<clipPath id="clip0_1727_5363">
<rect width="50" height="50" fill="white" transform="translate(25 25.5)"/>
</clipPath>
</defs>
</svg>
