<svg width="100" height="101" viewBox="0 0 100 101" fill="none" xmlns="http://www.w3.org/2000/svg">
<circle cx="50" cy="50.5" r="50" fill="#222330"/>
<path d="M39.0625 46.9062C40.5208 41.0729 44.1667 38.1562 50 38.1562C58.75 38.1562 59.8438 44.7187 64.2188 45.8125C67.1354 46.5417 69.6875 45.4479 71.875 42.5312C70.4167 48.3646 66.7708 51.2812 60.9375 51.2812C52.1875 51.2812 51.0938 44.7188 46.7188 43.625C43.8021 42.8958 41.25 43.9896 39.0625 46.9062ZM28.125 60.0312C29.5833 54.1979 33.2292 51.2812 39.0625 51.2812C47.8125 51.2812 48.9062 57.8437 53.2812 58.9375C56.1979 59.6667 58.75 58.5729 60.9375 55.6562C59.4792 61.4896 55.8333 64.4062 50 64.4062C41.25 64.4062 40.1562 57.8438 35.7812 56.75C32.8646 56.0208 30.3125 57.1146 28.125 60.0312Z" fill="#676984"/>
</svg>
