<svg width="100" height="101" viewBox="0 0 100 101" fill="none" xmlns="http://www.w3.org/2000/svg">
<circle cx="50" cy="50.5" r="50" fill="#222330"/>
<g clip-path="url(#clip0_1727_5351)">
<path d="M67.5 25.5H32.5C28.3579 25.5 25 28.8579 25 33V68C25 72.1421 28.3579 75.5 32.5 75.5H67.5C71.6421 75.5 75 72.1421 75 68V33C75 28.8579 71.6421 25.5 67.5 25.5Z" fill="#676984"/>
<path d="M47.7539 53.2344H54.0039V49.2305H36.5234V53.2344H42.7734V71.1055H47.7539V53.2344ZM55.957 70.1289C56.748 70.5391 57.7148 70.8418 58.7891 71.0469C59.8633 71.252 61.0352 71.3496 62.207 71.3496C63.3789 71.3496 64.4531 71.2422 65.5273 71.0176C66.6016 70.793 67.4805 70.4219 68.2617 69.9434C69.0527 69.4258 69.7266 68.7715 70.1172 67.8926C70.5078 67.0137 70.8105 66.0371 70.8105 64.7676C70.8105 63.8789 70.6738 63.1074 70.4102 62.4238C70.1465 61.7402 69.7656 61.1543 69.2383 60.666C68.7402 60.1484 68.1641 59.6895 67.4805 59.2988C66.7969 58.9082 66.0156 58.498 65.1367 58.127C64.4922 57.8633 63.9648 57.6094 63.3789 57.3555C62.8711 57.1016 62.4316 56.8477 62.1094 56.5937C61.748 56.3301 61.4746 56.0566 61.2793 55.7734C61.084 55.4805 60.9863 55.1582 60.9863 54.7969C60.9863 54.4648 61.0732 54.1621 61.25 53.8887C61.4268 53.6152 61.6699 53.3906 61.9824 53.1953C62.2949 53 62.6855 52.8535 63.1543 52.7461C63.6133 52.6387 64.1211 52.5898 64.7168 52.5898C65.127 52.5898 65.5566 52.6201 65.9863 52.6816C66.4355 52.7432 66.8945 52.8379 67.3535 52.9648C67.8125 53.0918 68.2617 53.248 68.7207 53.4434C69.1504 53.6387 69.5508 53.8633 69.8926 54.1172V49.5273C69.1504 49.2441 68.3301 49.0293 67.4512 48.8926C66.5723 48.7559 65.5957 48.6875 64.4238 48.6875C63.252 48.6875 62.1777 48.8145 61.1035 49.0586C60.0293 49.3027 59.1504 49.6934 58.3691 50.2305C57.5781 50.7578 57.002 51.4023 56.5137 52.2812C56.0547 53.1016 55.8301 54.0391 55.8301 55.2109C55.8301 56.6758 56.25 57.9453 57.0996 58.9219C57.9395 59.9961 59.248 60.7773 60.9082 61.5586C61.582 61.832 62.1777 62.1055 62.7637 62.3691C63.3496 62.6328 63.8379 62.9062 64.2285 63.1895C64.6484 63.4727 64.9805 63.7852 65.2051 64.1172C65.4492 64.4492 65.5762 64.8398 65.5762 65.2891C65.5762 65.6016 65.5 65.8945 65.3516 66.168C65.2031 66.4414 64.9707 66.6758 64.6582 66.8711C64.3457 67.0664 63.9648 67.2227 63.4863 67.3398C63.0273 67.4473 62.5098 67.5059 61.8262 67.5059C60.752 67.5059 59.6777 67.3203 58.7012 66.9492C57.627 66.5781 56.6504 66.0215 55.957 65.4414V70.1289Z" fill="white"/>
</g>
<defs>
<clipPath id="clip0_1727_5351">
<rect width="50" height="50" fill="white" transform="translate(25 25.5)"/>
</clipPath>
</defs>
</svg>
