<svg width="100" height="101" viewBox="0 0 100 101" fill="none" xmlns="http://www.w3.org/2000/svg">
<circle cx="50" cy="50.5" r="50" fill="#222330"/>
<g clip-path="url(#clip0_1727_5346)">
<path d="M48.3627 25.5135C48.2551 25.5232 47.913 25.5574 47.6051 25.5819C40.5034 26.2221 33.8514 30.0534 29.6383 35.942C27.2923 39.2162 25.7918 42.9303 25.2248 46.8642C25.0244 48.2374 25 48.643 25 50.5049C25 52.3668 25.0244 52.7724 25.2248 54.1456C26.5836 63.5333 33.2649 71.4207 42.3265 74.343C43.9492 74.8659 45.6598 75.2227 47.6051 75.4377C48.3627 75.5208 51.6373 75.5208 52.3949 75.4377C55.7527 75.0663 58.5973 74.2355 61.4027 72.8037C61.8328 72.5838 61.9159 72.5251 61.8573 72.4762C61.8182 72.4469 59.9853 69.9888 57.7859 67.0176L53.7879 61.6176L48.7781 54.2043C46.0215 50.1286 43.7537 46.7958 43.7341 46.7958C43.7146 46.7909 43.695 50.0846 43.6852 54.1065C43.6706 61.1485 43.6657 61.4319 43.5777 61.5981C43.4506 61.8375 43.3529 61.9353 43.1476 62.0428C42.9912 62.121 42.8543 62.1356 42.1163 62.1356H41.2708L41.0459 61.9939C40.8993 61.9011 40.7918 61.7789 40.7185 61.6372L40.6158 61.4173L40.6256 51.6191L40.6403 41.816L40.7918 41.6255C40.87 41.5228 41.0362 41.3909 41.1535 41.3274C41.3539 41.2296 41.4321 41.2198 42.2776 41.2198C43.2747 41.2198 43.4409 41.2589 43.6999 41.5424C43.7732 41.6206 46.4858 45.706 49.7312 50.6271C52.9765 55.5481 57.4145 62.2676 59.5943 65.5662L63.5533 71.5624L63.7537 71.4305C65.5279 70.2772 67.4047 68.6352 68.8905 66.9248C72.0528 63.2938 74.0909 58.8663 74.7752 54.1456C74.9756 52.7724 75 52.3668 75 50.5049C75 48.643 74.9756 48.2374 74.7752 46.8642C73.4164 37.4765 66.7351 29.5891 57.6735 26.6668C56.0753 26.1487 54.3744 25.792 52.4682 25.577C51.999 25.5281 48.7683 25.4744 48.3627 25.5135ZM58.5973 40.6334C58.8319 40.7507 59.0225 40.9755 59.0909 41.2101C59.13 41.3371 59.1398 44.0542 59.13 50.1775L59.1153 58.9641L57.566 56.589L56.0117 54.214V47.8269C56.0117 43.6975 56.0313 41.3762 56.0606 41.2638C56.1388 40.9902 56.3099 40.7751 56.5445 40.6481C56.7449 40.5455 56.8182 40.5357 57.5855 40.5357C58.3089 40.5357 58.436 40.5455 58.5973 40.6334Z" fill="#676984"/>
</g>
<defs>
<clipPath id="clip0_1727_5346">
<rect width="50" height="50" fill="white" transform="translate(25 25.5)"/>
</clipPath>
</defs>
</svg>
