<svg width="100" height="111" viewBox="0 0 100 111" fill="none" xmlns="http://www.w3.org/2000/svg">
<circle cx="50" cy="60.5" r="50" fill="#222330"/>
<g clip-path="url(#clip0_1727_5414)">
<path d="M50 85C63.8071 85 75 73.8071 75 60C75 46.1929 63.8071 35 50 35C36.1929 35 25 46.1929 25 60C25 73.8071 36.1929 85 50 85Z" fill="#676984"/>
<path d="M56.6822 56.9453C55.1031 49.9761 51.3711 47.6846 50.9693 46.8091C50.5298 46.1914 50.0845 45.0928 50.0845 45.0928C50.0772 45.0742 50.0655 45.0415 50.0518 45.0098C50.0064 45.6274 49.983 45.8657 49.399 46.4888C48.4947 47.1958 43.855 51.0889 43.4776 59.0068C43.1255 66.3916 48.8121 70.792 49.5811 71.353L49.6685 71.415V71.4097C49.6734 71.4468 49.9126 73.1675 50.0806 74.9907H50.6832C50.8245 73.7019 51.0364 72.4219 51.3179 71.1562L51.3668 71.1245C51.7108 70.8779 52.0387 70.6096 52.3487 70.3213L52.3838 70.2896C54.0186 68.7793 56.9576 65.2861 56.9288 59.7168C56.9227 58.7878 56.8402 57.8608 56.6822 56.9453ZM50.0167 67.1836C50.0167 67.1836 50.0167 56.8262 50.3584 56.8281C50.6251 56.8281 50.9703 70.188 50.9703 70.188C50.4957 70.1309 50.0167 67.9893 50.0167 67.1836Z" fill="white"/>
</g>
<defs>
<clipPath id="clip0_1727_5414">
<rect width="50" height="50" fill="white" transform="translate(25 35)"/>
</clipPath>
</defs>
</svg>
