<svg width="100" height="101" viewBox="0 0 100 101" fill="none" xmlns="http://www.w3.org/2000/svg">
<circle cx="50" cy="50.5" r="50" fill="#222330"/>
<g clip-path="url(#clip0_1727_5332)">
<path d="M67.5 25.5H32.5C28.3579 25.5 25 28.8579 25 33V68C25 72.1421 28.3579 75.5 32.5 75.5H67.5C71.6421 75.5 75 72.1421 75 68V33C75 28.8579 71.6421 25.5 67.5 25.5Z" fill="#676984"/>
<path d="M56.6406 61.6328C57.6172 63.293 58.9844 64.4648 61.2305 64.4648C63.1836 64.4648 64.4531 63.4883 64.4531 62.1211C64.4531 60.5586 63.1836 59.9727 61.0352 58.9961L59.8633 58.5078C56.4453 57.043 54.1992 55.2852 54.1992 51.4766C54.1992 47.9609 56.8359 45.2266 61.0352 45.2266C64.0625 45.2266 66.2109 46.3008 67.6758 49.0352L64.0625 51.3789C63.2812 49.9141 62.4023 49.3281 61.0352 49.3281C59.668 49.3281 58.7891 50.207 58.7891 51.3789C58.7891 52.7461 59.668 53.332 61.7188 54.2109L62.8906 54.6992C66.8945 56.457 69.1406 58.1172 69.1406 62.1211C69.1406 66.3203 65.8203 68.6641 61.3281 68.6641C56.9336 68.6641 54.1016 66.6133 52.7344 63.8789L56.6406 61.6328ZM40.0391 62.0234C40.8203 63.293 41.4062 64.4648 43.0664 64.4648C44.6289 64.4648 45.6055 63.8789 45.6055 61.5352V45.3242H50.293V61.3398C50.293 66.2227 47.4609 68.3711 43.2617 68.3711C39.4531 68.3711 37.3047 66.418 36.2305 64.0742L40.0391 62.0234Z" fill="#222330"/>
</g>
<defs>
<clipPath id="clip0_1727_5332">
<rect width="50" height="50" fill="white" transform="translate(25 25.5)"/>
</clipPath>
</defs>
</svg>
