<svg width="100" height="101" viewBox="0 0 100 101" fill="none" xmlns="http://www.w3.org/2000/svg">
<circle cx="50" cy="50.5" r="50" fill="#222330"/>
<path d="M72 62.8517C70.3995 63.2503 69.4095 62.8692 68.5212 61.563L62.2045 53.0039L61.2915 51.8189L53.9146 61.5912C53.0718 62.7668 52.1876 63.2785 50.6146 62.8624L60.0609 50.444L51.2664 39.2268C52.7789 38.9386 53.8239 39.0854 54.752 40.4118L61.3039 49.0772L67.9039 40.4589C68.7495 39.2833 69.6584 38.8363 71.1764 39.2699L67.7664 43.6975L63.1464 49.5889C62.5964 50.2622 62.672 50.7228 63.178 51.3732L72 62.8517ZM28.011 50.2366L28.7837 46.5146C30.8875 39.1487 39.5088 36.0878 45.4543 40.6394C48.9289 43.3164 49.7924 47.1031 49.6205 51.3449H30.035C29.7408 58.9802 35.3521 63.5883 42.5063 61.2371C45.0156 60.4116 46.4937 58.4873 47.2335 56.0796C47.6089 54.873 48.2304 54.6845 49.3881 55.0292C48.7969 58.0402 47.4631 60.5557 44.6444 62.1299C40.4327 64.4865 34.4212 63.7243 31.2587 60.4493C29.375 58.5493 28.5968 56.1415 28.2475 53.5668C28.1925 53.1413 28.0825 52.7359 28 52.3279C28.0073 51.6313 28.011 50.9346 28.011 50.238V50.2366ZM30.0707 49.7249H47.7698C47.6543 44.2038 44.1439 40.2825 39.3465 40.2488C34.0802 40.2084 30.299 44.0369 30.0707 49.7249Z" fill="#676984"/>
</svg>
