<svg width="100" height="101" viewBox="0 0 100 101" fill="none" xmlns="http://www.w3.org/2000/svg">
<circle cx="50" cy="50.5" r="50" fill="#222330"/>
<path d="M59.0419 59.1812C60.7717 59.0051 62.0841 57.539 62.0244 55.7795C61.9648 54.0202 60.4734 52.6127 58.6839 52.6127H58.5647C56.7153 52.6713 55.2839 54.1962 55.3436 56.0142C55.4033 56.8938 55.7611 57.6562 56.298 58.184C54.2698 62.1134 51.168 64.987 46.5153 67.3915C43.3537 69.0335 40.0731 69.6201 36.7924 69.2096C34.1081 68.8577 32.0203 67.6849 30.7078 65.7493C28.7991 62.8757 28.6202 59.7674 30.2308 56.6593C31.3642 54.4307 33.1536 52.7885 34.287 51.9674C34.0484 51.2051 33.6904 49.9149 33.5115 48.9767C24.8622 55.1345 25.757 63.4623 28.3817 67.3915C30.35 70.3238 34.3467 72.142 38.7608 72.142C39.9537 72.142 41.1467 72.0245 42.3398 71.7315C49.9752 70.2652 55.7612 65.8081 59.0419 59.1812ZM69.5405 51.909C65.007 46.6895 58.3261 43.8159 50.6908 43.8159H49.7366C49.1997 42.7602 48.0662 42.0563 46.8136 42.0563H46.6942C44.8452 42.1151 43.4137 43.6398 43.4733 45.4579C43.533 47.2173 45.0241 48.6248 46.8136 48.6248H46.9328C48.2452 48.5662 49.3786 47.7451 49.8558 46.6307H50.9294C55.463 46.6307 59.7577 47.9209 63.6352 50.4427C66.6175 52.3781 68.765 54.8999 69.958 57.9495C70.972 60.4126 70.9123 62.8171 69.8386 64.8698C68.1684 67.9779 65.365 69.6787 61.6666 69.6787C59.2805 69.6787 57.0139 68.9749 55.8208 68.4471C55.1647 69.0335 53.9716 69.9718 53.1364 70.5585C55.7016 71.7313 58.3261 72.3765 60.8314 72.3765C66.5578 72.3765 70.7931 69.2681 72.4038 66.1599C74.1334 62.7584 74.0141 56.8938 69.5405 51.909ZM39.238 60.1779C39.2977 61.9373 40.7889 63.3446 42.5784 63.3446H42.6978C44.5469 63.2862 45.9784 61.7613 45.9187 59.9434C45.8592 58.1838 44.3678 56.7765 42.5784 56.7765H42.4592C42.3398 56.7765 42.1608 56.7765 42.0417 56.8349C39.5959 52.8471 38.5819 48.5074 38.9399 43.8157C39.1783 40.2969 40.3714 37.2472 42.4592 34.7254C44.1889 32.5555 47.5294 31.4999 49.7962 31.4414C56.1191 31.324 58.8031 39.0652 58.9822 42.1735C59.7577 42.3495 61.07 42.7601 61.9648 43.0534C61.2489 33.5528 55.2839 28.6265 49.5577 28.6265C44.1889 28.6265 39.238 32.4385 37.2694 38.0685C34.5256 45.5751 36.3151 52.7885 39.6555 58.4773C39.3574 58.8877 39.1783 59.5327 39.238 60.1779Z" fill="#676984"/>
</svg>
