<svg width="156" height="157" viewBox="0 0 156 157" fill="none" xmlns="http://www.w3.org/2000/svg">
<g filter="url(#filter0_d_1727_5337)">
<circle cx="78" cy="73.5" r="58" fill="#343649"/>
<g clip-path="url(#clip0_1727_5337)">
<path d="M82.2198 75.0776C83.183 72.4707 81.7843 69.5517 79.0952 68.5581C76.4066 67.5647 73.4456 68.8729 72.4824 71.4798C71.5191 74.0871 72.9182 77.006 75.6069 77.9994C78.2959 78.993 81.2564 77.6848 82.2198 75.0776Z" fill="#53C1DE"/>
<path fill-rule="evenodd" clip-rule="evenodd" d="M96.401 70.3569C98.9259 66.6859 102.994 59.6515 99.3788 55.4214C95.781 51.2103 88.0848 53.8888 83.8913 55.654C81.8513 51.6187 77.5721 44.5391 72.0761 45.4121C66.6032 46.2815 65.2716 54.1853 64.8164 58.6499C60.1578 58.252 51.9827 58.0819 50.0895 63.2061C48.2016 68.3158 54.4342 73.7198 58.2078 76.4362C55.6385 80.1453 51.6202 86.9365 55.2209 91.152C58.8461 95.3945 66.639 92.9062 70.8732 91.1197C72.9252 95.2121 77.0131 102.125 82.4892 101.255C87.9824 100.383 89.5357 92.5337 89.9996 88.0454C94.505 88.385 102.748 88.3969 104.612 83.351C106.487 78.2761 100.134 73.0552 96.401 70.3569ZM90.1679 85.6383C90.2604 83.2653 90.1611 80.6688 89.8814 77.9212C91.8083 76.0513 93.525 74.1588 94.9734 72.3023C97.7074 74.2872 103.676 78.7201 102.283 82.4905C100.877 86.2964 93.7231 85.902 90.1679 85.6383ZM82.0441 98.8697C77.9584 99.5185 74.6113 93.1152 73.0936 90.0991C75.232 89.0375 77.4672 87.7107 79.7428 86.161C82.4625 86.9083 85.0895 87.4576 87.5349 87.7858C87.203 90.9592 86.1479 98.2177 82.0441 98.8697ZM57.1076 89.6254C54.4223 86.4828 58.3701 80.5564 60.2617 77.8238C62.3179 79.128 64.6627 80.386 67.2281 81.5699C67.976 84.1853 68.8569 86.6607 69.8368 88.9057C67.1882 90.0238 59.8055 92.7825 57.1076 89.6254ZM52.4185 64.0667C53.8299 60.2466 61.2016 60.7588 64.6382 61.0563C64.5256 63.46 64.5893 66.0405 64.8288 68.7146C62.8817 70.6192 61.1295 72.5692 59.6364 74.4918C56.9662 72.5667 51.0062 67.889 52.4185 64.0667ZM72.5209 47.7977C76.6238 47.1461 80.1803 53.739 81.6637 56.663C79.4705 57.7269 77.2114 59.0261 74.96 60.5198C72.3107 59.8028 69.7193 59.2659 67.2795 58.9279C67.6476 55.3274 68.4225 48.4486 72.5209 47.7977ZM88.2635 68.2248C89.9245 69.0804 91.4866 69.9794 92.9236 70.904C91.9143 72.1905 90.7646 73.501 89.4966 74.8113C89.1764 72.6027 88.7692 70.4038 88.2635 68.2248ZM82.7002 58.8801C83.3575 60.4054 83.9679 62.063 84.5212 63.8211C82.4107 62.9294 80.2605 62.1345 78.0776 61.4387C79.6374 60.4757 81.1874 59.6185 82.7002 58.8801ZM67.1467 66.5516C67.0447 64.7413 67.0309 62.9933 67.1042 61.3372C68.7846 61.5745 70.5455 61.9116 72.3512 62.3408C70.5483 63.6626 68.8113 65.0683 67.1467 66.5516ZM66.4306 78.5176C64.7166 77.6647 63.1292 76.7806 61.6953 75.8778C62.7335 74.5486 63.9055 73.2012 65.1869 71.8638C65.4936 74.0974 65.9093 76.3183 66.4306 78.5176ZM72.0588 87.8797C71.3816 86.3169 70.7524 84.6325 70.1847 82.8612C72.3134 83.7411 74.4766 84.5406 76.6701 85.2449C75.0914 86.2516 73.5467 87.1348 72.0588 87.8797ZM87.587 80.048C87.7207 81.9279 87.7593 83.7129 87.6999 85.3748C85.9896 85.1405 84.1788 84.7916 82.3032 84.3363C84.125 82.9795 85.8915 81.552 87.587 80.048ZM79.2426 83.5166C75.8554 82.5251 72.5332 81.2948 69.3062 79.8666C68.4113 76.5143 67.7733 73.1007 67.4034 69.665C69.9092 67.2986 72.5992 65.1209 75.4483 63.1567C78.8439 64.136 82.1706 65.3643 85.3863 66.8303C86.2579 70.169 86.8859 73.5644 87.2941 76.9777C84.773 79.3367 82.0722 81.5168 79.2426 83.5166ZM97.4926 56.9479C100.189 60.1047 96.182 66.2969 94.3547 68.9583C92.2798 67.6164 89.9625 66.3322 87.4773 65.148C86.7432 62.526 85.8859 60.0718 84.9291 57.8682C88.0028 56.5767 94.8219 53.8219 97.4926 56.9479Z" fill="#53C1DE"/>
</g>
</g>
<defs>
<filter id="filter0_d_1727_5337" x="0" y="0.5" width="156" height="156" filterUnits="userSpaceOnUse" color-interpolation-filters="sRGB">
<feFlood flood-opacity="0" result="BackgroundImageFix"/>
<feColorMatrix in="SourceAlpha" type="matrix" values="0 0 0 0 0 0 0 0 0 0 0 0 0 0 0 0 0 0 127 0" result="hardAlpha"/>
<feOffset dy="5"/>
<feGaussianBlur stdDeviation="10"/>
<feComposite in2="hardAlpha" operator="out"/>
<feColorMatrix type="matrix" values="0 0 0 0 0 0 0 0 0 0 0 0 0 0 0 0 0 0 0.1 0"/>
<feBlend mode="normal" in2="BackgroundImageFix" result="effect1_dropShadow_1727_5337"/>
<feBlend mode="normal" in="SourceGraphic" in2="effect1_dropShadow_1727_5337" result="shape"/>
</filter>
<clipPath id="clip0_1727_5337">
<rect width="62" height="62" fill="white" transform="translate(59 33.5) rotate(20.2782)"/>
</clipPath>
</defs>
</svg>
