<svg width="100" height="101" viewBox="0 0 100 101" fill="none" xmlns="http://www.w3.org/2000/svg">
<circle cx="50" cy="50.5" r="50" fill="#222330"/>
<g clip-path="url(#clip0_1727_5405)">
<path d="M49.9998 75.4072C49.3121 75.4072 48.6702 75.2238 48.0741 74.9029L41.9762 71.2808C41.0592 70.7764 41.5177 70.593 41.7928 70.5013C43.0307 70.0887 43.2599 69.997 44.5437 69.2634C44.6813 69.1717 44.8647 69.2175 45.0022 69.3092L49.6789 72.1061C49.8623 72.1978 50.0915 72.1978 50.2291 72.1061L68.523 61.5148C68.7064 61.4231 68.7981 61.2397 68.7981 61.0105V39.8738C68.7981 39.6446 68.7064 39.4612 68.523 39.3695L50.2291 28.8241C50.0457 28.7324 49.8164 28.7324 49.6789 28.8241L31.3849 39.3695C31.2015 39.4612 31.1098 39.6904 31.1098 39.8738V61.0105C31.1098 61.1939 31.2015 61.4231 31.3849 61.5148L36.3825 64.4033C39.0876 65.7788 40.7841 64.1741 40.7841 62.5694V41.7078C40.7841 41.4327 41.0133 41.1576 41.3343 41.1576H43.6726C43.9477 41.1576 44.2228 41.3869 44.2228 41.7078V62.5694C44.2228 66.1915 42.2512 68.3005 38.8125 68.3005C37.758 68.3005 36.9327 68.3005 34.5944 67.1543L29.7802 64.4033C28.5881 63.7156 27.8545 62.4318 27.8545 61.0563V39.9197C27.8545 38.5442 28.5881 37.2604 29.7802 36.5727L48.0741 25.9814C49.2204 25.3395 50.7793 25.3395 51.9255 25.9814L70.2195 36.5727C71.4116 37.2604 72.1451 38.5442 72.1451 39.9197V61.0563C72.1451 62.4318 71.4116 63.7156 70.2195 64.4033L51.9255 74.9946C51.3295 75.2697 50.6417 75.4072 49.9998 75.4072ZM55.6393 60.8729C47.6156 60.8729 45.9651 57.205 45.9651 54.0872C45.9651 53.8121 46.1943 53.537 46.5153 53.537H48.8994C49.1745 53.537 49.4038 53.7204 49.4038 53.9955C49.7706 56.4255 50.8251 57.6176 55.6852 57.6176C59.5365 57.6176 61.1871 56.7465 61.1871 54.6832C61.1871 53.4911 60.7286 52.62 54.7223 52.024C49.7247 51.5196 46.607 50.4192 46.607 46.4303C46.607 42.7165 49.7247 40.5157 54.9516 40.5157C60.8203 40.5157 63.7088 42.5331 64.0756 46.9347C64.0756 47.0722 64.0298 47.2098 63.9381 47.3473C63.8464 47.439 63.7088 47.5307 63.5713 47.5307H61.1871C60.9579 47.5307 60.7286 47.3473 60.6828 47.1181C60.1326 44.5963 58.7112 43.771 54.9516 43.771C50.7334 43.771 50.2291 45.2382 50.2291 46.3386C50.2291 47.6683 50.8251 48.0809 56.5105 48.8145C62.1499 49.5481 64.8092 50.6026 64.8092 54.5457C64.7634 58.5804 61.4622 60.8729 55.6393 60.8729Z" fill="#676984"/>
</g>
<defs>
<clipPath id="clip0_1727_5405">
<rect width="50" height="50" fill="white" transform="translate(25 25.5)"/>
</clipPath>
</defs>
</svg>
