<svg width="100" height="101" viewBox="0 0 100 101" fill="none" xmlns="http://www.w3.org/2000/svg">
<circle cx="50" cy="50.5" r="50" fill="#222330"/>
<g clip-path="url(#clip0_1727_5356)">
<path d="M31.9336 70.4219L27.9297 25.5H71.9727L67.9688 70.4219L49.9023 75.5" fill="#676984"/>
<path d="M50 71.5938L64.5508 67.5898L67.9688 29.1133H50" fill="#676984"/>
<path d="M50 45.8125H42.6758L42.1875 40.1484H50V34.6797H36.1328L37.5977 51.3789H50V45.8125ZM49.9023 60.168L43.75 58.5078L43.3594 54.1133H37.8906L38.5742 62.8047L49.9023 65.9297V60.168Z" fill="white"/>
<path d="M49.9023 45.8125V51.3789H56.7383L56.0547 58.5078L49.9023 60.168V65.9297L61.2305 62.8047L62.793 45.8125H49.9023ZM49.9023 34.6797V40.1484H63.2812L63.7695 34.6797H49.9023Z" fill="white"/>
</g>
<defs>
<clipPath id="clip0_1727_5356">
<rect width="50" height="50" fill="white" transform="translate(25 25.5)"/>
</clipPath>
</defs>
</svg>
