<svg width="115" height="114" viewBox="0 0 115 114" fill="none" xmlns="http://www.w3.org/2000/svg">
<g filter="url(#filter0_d_1727_5132)">
<rect x="16.5" y="16" width="62" height="62" rx="10" fill="#428DFF"/>
</g>
<path d="M57.1538 37H36.8462C36.3565 37 35.8869 37.1916 35.5407 37.5325C35.1945 37.8735 35 38.336 35 38.8182V55.1818C35 55.664 35.1945 56.1265 35.5407 56.4675C35.8869 56.8084 36.3565 57 36.8462 57H57.1538C57.6435 57 58.1131 56.8084 58.4593 56.4675C58.8055 56.1265 59 55.664 59 55.1818V38.8182C59 38.336 58.8055 37.8735 58.4593 37.5325C58.1131 37.1916 57.6435 37 57.1538 37ZM42.9385 49C43.1343 49.1447 43.2638 49.36 43.2984 49.5987C43.333 49.8374 43.27 50.0798 43.1231 50.2727C42.9762 50.4656 42.7575 50.5931 42.5152 50.6272C42.2728 50.6613 42.0266 50.5992 41.8308 50.4545L38.1385 47.7273C38.0238 47.6426 37.9308 47.5328 37.8667 47.4066C37.8026 47.2803 37.7692 47.1411 37.7692 47C37.7692 46.8589 37.8026 46.7197 37.8667 46.5934C37.9308 46.4672 38.0238 46.3574 38.1385 46.2727L41.8308 43.5455C42.0266 43.4008 42.2728 43.3387 42.5152 43.3728C42.7575 43.4069 42.9762 43.5344 43.1231 43.7273C43.27 43.9202 43.333 44.1626 43.2984 44.4013C43.2638 44.64 43.1343 44.8553 42.9385 45L40.2304 47L42.9385 49ZM49.7335 40.8864L46.0412 53.6136C46.0097 53.7305 45.9549 53.8399 45.8799 53.9356C45.805 54.0314 45.7114 54.1114 45.6047 54.1711C45.498 54.2307 45.3803 54.2689 45.2584 54.2832C45.1366 54.2975 45.013 54.2878 44.895 54.2546C44.7771 54.2213 44.667 54.1652 44.5713 54.0896C44.4755 54.014 44.3961 53.9203 44.3376 53.814C44.2791 53.7078 44.2426 53.5912 44.2304 53.4709C44.2182 53.3506 44.2305 53.2292 44.2665 53.1136L47.9588 40.3864C48.0298 40.1588 48.1886 39.9677 48.4011 39.8542C48.6135 39.7407 48.8627 39.7137 49.0951 39.7792C49.3275 39.8447 49.5246 39.9974 49.6439 40.2044C49.7633 40.4114 49.7954 40.6563 49.7335 40.8864ZM55.8615 47.7273L52.1692 50.4545C51.9734 50.5992 51.7272 50.6613 51.4848 50.6272C51.2425 50.5931 51.0238 50.4656 50.8769 50.2727C50.73 50.0798 50.667 49.8374 50.7016 49.5987C50.7362 49.36 50.8657 49.1447 51.0615 49L53.7696 47L51.0615 45C50.9646 44.9284 50.8829 44.8386 50.8211 44.7359C50.7593 44.6332 50.7187 44.5195 50.7016 44.4013C50.6844 44.2831 50.6911 44.1628 50.7212 44.0471C50.7513 43.9315 50.8042 43.8228 50.8769 43.7273C50.9497 43.6318 51.0408 43.5513 51.1451 43.4905C51.2494 43.4297 51.3648 43.3897 51.4848 43.3728C51.6048 43.3559 51.727 43.3624 51.8445 43.3921C51.9619 43.4217 52.0723 43.4738 52.1692 43.5455L55.8615 46.2727C55.9762 46.3574 56.0692 46.4672 56.1333 46.5934C56.1974 46.7197 56.2308 46.8589 56.2308 47C56.2308 47.1411 56.1974 47.2803 56.1333 47.4066C56.0692 47.5328 55.9762 47.6426 55.8615 47.7273Z" fill="white"/>
<defs>
<filter id="filter0_d_1727_5132" x="0.5" y="0" width="114" height="114" filterUnits="userSpaceOnUse" color-interpolation-filters="sRGB">
<feFlood flood-opacity="0" result="BackgroundImageFix"/>
<feColorMatrix in="SourceAlpha" type="matrix" values="0 0 0 0 0 0 0 0 0 0 0 0 0 0 0 0 0 0 127 0" result="hardAlpha"/>
<feOffset dx="10" dy="10"/>
<feGaussianBlur stdDeviation="13"/>
<feComposite in2="hardAlpha" operator="out"/>
<feColorMatrix type="matrix" values="0 0 0 0 0.00784314 0 0 0 0 0.321569 0 0 0 0 0.803922 0 0 0 0.28 0"/>
<feBlend mode="normal" in2="BackgroundImageFix" result="effect1_dropShadow_1727_5132"/>
<feBlend mode="normal" in="SourceGraphic" in2="effect1_dropShadow_1727_5132" result="shape"/>
</filter>
</defs>
</svg>
