<svg width="100" height="100" viewBox="0 0 100 100" fill="none" xmlns="http://www.w3.org/2000/svg">
<circle cx="50" cy="50" r="50" fill="#F6F6F6"/>
<path d="M72 62.3517C70.3995 62.7503 69.4095 62.3692 68.5212 61.063L62.2045 52.5039L61.2915 51.3189L53.9146 61.0912C53.0718 62.2668 52.1876 62.7785 50.6146 62.3624L60.0609 49.944L51.2664 38.7268C52.7789 38.4386 53.8239 38.5854 54.752 39.9118L61.3039 48.5772L67.9039 39.9589C68.7495 38.7833 69.6584 38.3363 71.1764 38.7699L67.7664 43.1975L63.1464 49.0889C62.5964 49.7622 62.672 50.2228 63.178 50.8732L72 62.3517ZM28.011 49.7366L28.7837 46.0146C30.8875 38.6487 39.5088 35.5878 45.4543 40.1394C48.9289 42.8164 49.7924 46.6031 49.6205 50.8449H30.035C29.7408 58.4802 35.3521 63.0883 42.5063 60.7371C45.0156 59.9116 46.4937 57.9873 47.2335 55.5796C47.6089 54.373 48.2304 54.1845 49.3881 54.5292C48.7969 57.5402 47.4631 60.0557 44.6444 61.6299C40.4327 63.9865 34.4212 63.2243 31.2587 59.9493C29.375 58.0493 28.5968 55.6415 28.2475 53.0668C28.1925 52.6413 28.0825 52.2359 28 51.8279C28.0073 51.1313 28.011 50.4346 28.011 49.738V49.7366ZM30.0707 49.2249H47.7698C47.6543 43.7038 44.1439 39.7825 39.3465 39.7488C34.0802 39.7084 30.299 43.5369 30.0707 49.2249Z" fill="#6F6F6F"/>
</svg>
