<svg width="63" height="62" viewBox="0 0 63 62" fill="none" xmlns="http://www.w3.org/2000/svg">
<rect x="0.5" width="62" height="62" rx="10" fill="white"/>
<path d="M40.4782 32.21C40.5193 32.0193 40.5037 31.8207 40.4333 31.6388C40.363 31.4568 40.2409 31.2994 40.0822 31.186L26.0822 21.186C25.9247 21.0727 25.7376 21.0077 25.5437 20.999C25.3499 20.9904 25.1577 21.0383 24.9907 21.1371C24.8236 21.2358 24.6889 21.381 24.6031 21.5551C24.5172 21.7291 24.4839 21.9243 24.5072 22.117L26.5072 39.117C26.5302 39.3119 26.6101 39.4957 26.7368 39.6455C26.8636 39.7953 27.0316 39.9046 27.22 39.9596C27.4084 40.0146 27.6088 40.013 27.7963 39.9549C27.9837 39.8968 28.1499 39.7848 28.2742 39.633L31.8862 35.217L35.2632 40.677L36.9642 39.625L33.6072 34.197L39.6962 32.979C39.8876 32.9415 40.0637 32.8487 40.2027 32.7119C40.3418 32.5752 40.4376 32.4007 40.4782 32.21Z" fill="#0252CD"/>
</svg>
