<svg width="100" height="100" viewBox="0 0 100 100" fill="none" xmlns="http://www.w3.org/2000/svg">
<circle cx="50" cy="50" r="50" fill="#F6F6F6"/>
<path d="M31.9336 69.9219L27.9297 25H71.9727L67.9688 69.9219L49.9023 75" fill="#6F6F6F"/>
<path d="M50 71.0938L64.5508 67.0898L67.9688 28.6133H50" fill="#6F6F6F"/>
<path d="M50 45.3125H42.6758L42.1875 39.6484H50V34.1797H36.1328L37.5977 50.8789H50V45.3125ZM49.9023 59.668L43.75 58.0078L43.3594 53.6133H37.8906L38.5742 62.3047L49.9023 65.4297V59.668Z" fill="white"/>
<path d="M49.9023 45.3125V50.8789H56.7383L56.0547 58.0078L49.9023 59.668V65.4297L61.2305 62.3047L62.793 45.3125H49.9023ZM49.9023 34.1797V39.6484H63.2812L63.7695 34.1797H49.9023Z" fill="white"/>
</svg>
