<svg width="100" height="100" viewBox="0 0 100 100" fill="none" xmlns="http://www.w3.org/2000/svg">
<circle cx="50" cy="50" r="50" fill="#F6F6F6"/>
<g clip-path="url(#clip0_1711_10)">
<path d="M67.5 25H32.5C28.3579 25 25 28.3579 25 32.5V67.5C25 71.6421 28.3579 75 32.5 75H67.5C71.6421 75 75 71.6421 75 67.5V32.5C75 28.3579 71.6421 25 67.5 25Z" fill="#6F6F6F"/>
<path d="M56.6406 61.1328C57.6172 62.793 58.9844 63.9648 61.2305 63.9648C63.1836 63.9648 64.4531 62.9883 64.4531 61.6211C64.4531 60.0586 63.1836 59.4727 61.0352 58.4961L59.8633 58.0078C56.4453 56.543 54.1992 54.7852 54.1992 50.9766C54.1992 47.4609 56.8359 44.7266 61.0352 44.7266C64.0625 44.7266 66.2109 45.8008 67.6758 48.5352L64.0625 50.8789C63.2812 49.4141 62.4023 48.8281 61.0352 48.8281C59.668 48.8281 58.7891 49.707 58.7891 50.8789C58.7891 52.2461 59.668 52.832 61.7188 53.7109L62.8906 54.1992C66.8945 55.957 69.1406 57.6172 69.1406 61.6211C69.1406 65.8203 65.8203 68.1641 61.3281 68.1641C56.9336 68.1641 54.1016 66.1133 52.7344 63.3789L56.6406 61.1328ZM40.0391 61.5234C40.8203 62.793 41.4062 63.9648 43.0664 63.9648C44.6289 63.9648 45.6055 63.3789 45.6055 61.0352V44.8242H50.293V60.8398C50.293 65.7227 47.4609 67.8711 43.2617 67.8711C39.4531 67.8711 37.3047 65.918 36.2305 63.5742L40.0391 61.5234Z" fill="#F6F6F6"/>
</g>
<defs>
<clipPath id="clip0_1711_10">
<rect width="50" height="50" fill="white" transform="translate(25 25)"/>
</clipPath>
</defs>
</svg>
