<svg width="100" height="110" viewBox="0 0 100 110" fill="none" xmlns="http://www.w3.org/2000/svg">
<circle cx="50" cy="60" r="50" fill="#F6F6F6"/>
<g clip-path="url(#clip0_1711_92)">
<path d="M50 75C63.8071 75 75 63.8071 75 50C75 36.1929 63.8071 25 50 25C36.1929 25 25 36.1929 25 50C25 63.8071 36.1929 75 50 75Z" fill="#6F6F6F"/>
<path d="M56.6822 46.9453C55.1031 39.9761 51.3711 37.6846 50.9693 36.8091C50.5298 36.1914 50.0845 35.0928 50.0845 35.0928C50.0772 35.0742 50.0655 35.0415 50.0518 35.0098C50.0064 35.6274 49.983 35.8657 49.399 36.4888C48.4947 37.1958 43.855 41.0889 43.4776 49.0068C43.1255 56.3916 48.8121 60.792 49.5811 61.353L49.6685 61.415V61.4097C49.6734 61.4468 49.9126 63.1675 50.0806 64.9907H50.6832C50.8245 63.7019 51.0364 62.4219 51.3179 61.1562L51.3668 61.1245C51.7108 60.8779 52.0387 60.6096 52.3487 60.3213L52.3838 60.2896C54.0186 58.7793 56.9576 55.2861 56.9288 49.7168C56.9227 48.7878 56.8402 47.8608 56.6822 46.9453ZM50.0167 57.1836C50.0167 57.1836 50.0167 46.8262 50.3584 46.8281C50.6251 46.8281 50.9703 60.188 50.9703 60.188C50.4957 60.1309 50.0167 57.9893 50.0167 57.1836Z" fill="white"/>
</g>
<defs>
<clipPath id="clip0_1711_92">
<rect width="50" height="50" fill="white" transform="translate(25 25)"/>
</clipPath>
</defs>
</svg>
