<svg width="100" height="100" viewBox="0 0 100 100" fill="none" xmlns="http://www.w3.org/2000/svg">
<circle cx="50" cy="50" r="50" fill="#F6F6F6"/>
<path d="M49.9998 74.9072C49.3121 74.9072 48.6702 74.7238 48.0741 74.4029L41.9762 70.7808C41.0592 70.2764 41.5177 70.093 41.7928 70.0013C43.0307 69.5887 43.2599 69.497 44.5437 68.7634C44.6813 68.6717 44.8647 68.7175 45.0022 68.8092L49.6789 71.6061C49.8623 71.6978 50.0915 71.6978 50.2291 71.6061L68.523 61.0148C68.7064 60.9231 68.7981 60.7397 68.7981 60.5105V39.3738C68.7981 39.1446 68.7064 38.9612 68.523 38.8695L50.2291 28.3241C50.0457 28.2324 49.8164 28.2324 49.6789 28.3241L31.3849 38.8695C31.2015 38.9612 31.1098 39.1904 31.1098 39.3738V60.5105C31.1098 60.6939 31.2015 60.9231 31.3849 61.0148L36.3825 63.9033C39.0876 65.2788 40.7841 63.6741 40.7841 62.0694V41.2078C40.7841 40.9327 41.0133 40.6576 41.3343 40.6576H43.6726C43.9477 40.6576 44.2228 40.8869 44.2228 41.2078V62.0694C44.2228 65.6915 42.2512 67.8005 38.8125 67.8005C37.758 67.8005 36.9327 67.8005 34.5944 66.6543L29.7802 63.9033C28.5881 63.2156 27.8545 61.9318 27.8545 60.5563V39.4197C27.8545 38.0442 28.5881 36.7604 29.7802 36.0727L48.0741 25.4814C49.2204 24.8395 50.7793 24.8395 51.9255 25.4814L70.2195 36.0727C71.4116 36.7604 72.1451 38.0442 72.1451 39.4197V60.5563C72.1451 61.9318 71.4116 63.2156 70.2195 63.9033L51.9255 74.4946C51.3295 74.7697 50.6417 74.9072 49.9998 74.9072ZM55.6393 60.3729C47.6156 60.3729 45.9651 56.705 45.9651 53.5872C45.9651 53.3121 46.1943 53.037 46.5153 53.037H48.8994C49.1745 53.037 49.4038 53.2204 49.4038 53.4955C49.7706 55.9255 50.8251 57.1176 55.6852 57.1176C59.5365 57.1176 61.1871 56.2465 61.1871 54.1832C61.1871 52.9911 60.7286 52.12 54.7223 51.524C49.7247 51.0196 46.607 49.9192 46.607 45.9303C46.607 42.2165 49.7247 40.0157 54.9516 40.0157C60.8203 40.0157 63.7088 42.0331 64.0756 46.4347C64.0756 46.5722 64.0298 46.7098 63.9381 46.8473C63.8464 46.939 63.7088 47.0307 63.5713 47.0307H61.1871C60.9579 47.0307 60.7286 46.8473 60.6828 46.6181C60.1326 44.0963 58.7112 43.271 54.9516 43.271C50.7334 43.271 50.2291 44.7382 50.2291 45.8386C50.2291 47.1683 50.8251 47.5809 56.5105 48.3145C62.1499 49.0481 64.8092 50.1026 64.8092 54.0457C64.7634 58.0804 61.4622 60.3729 55.6393 60.3729Z" fill="#6F6F6F"/>
</svg>
