<svg width="156" height="156" viewBox="0 0 156 156" fill="none" xmlns="http://www.w3.org/2000/svg">
<g filter="url(#filter0_d_1711_15)">
<circle cx="78" cy="73" r="58" fill="white"/>
<g clip-path="url(#clip0_1711_15)">
<path d="M82.2198 74.5776C83.183 71.9707 81.7843 69.0517 79.0952 68.0581C76.4066 67.0647 73.4456 68.3729 72.4824 70.9798C71.5191 73.5871 72.9182 76.506 75.6069 77.4994C78.2959 78.493 81.2564 77.1848 82.2198 74.5776Z" fill="#53C1DE"/>
<path fill-rule="evenodd" clip-rule="evenodd" d="M96.401 69.8569C98.9259 66.1859 102.994 59.1515 99.3788 54.9214C95.781 50.7103 88.0848 53.3888 83.8913 55.154C81.8513 51.1187 77.5721 44.0391 72.0761 44.9121C66.6032 45.7815 65.2716 53.6853 64.8164 58.1499C60.1578 57.752 51.9827 57.5819 50.0895 62.7061C48.2016 67.8158 54.4342 73.2198 58.2078 75.9362C55.6385 79.6453 51.6202 86.4365 55.2209 90.652C58.8461 94.8945 66.639 92.4062 70.8732 90.6197C72.9252 94.7121 77.0131 101.625 82.4892 100.755C87.9824 99.8827 89.5357 92.0337 89.9996 87.5454C94.505 87.885 102.748 87.8969 104.612 82.851C106.487 77.7761 100.134 72.5552 96.401 69.8569ZM90.1679 85.1383C90.2604 82.7653 90.1611 80.1688 89.8814 77.4212C91.8083 75.5513 93.525 73.6588 94.9734 71.8023C97.7074 73.7872 103.676 78.2201 102.283 81.9905C100.877 85.7964 93.7231 85.402 90.1679 85.1383ZM82.0441 98.3697C77.9584 99.0185 74.6113 92.6152 73.0936 89.5991C75.232 88.5375 77.4672 87.2107 79.7428 85.661C82.4625 86.4083 85.0895 86.9576 87.5349 87.2858C87.203 90.4592 86.1479 97.7177 82.0441 98.3697ZM57.1076 89.1254C54.4223 85.9828 58.3701 80.0564 60.2617 77.3238C62.3179 78.628 64.6627 79.886 67.2281 81.0699C67.976 83.6853 68.8569 86.1607 69.8368 88.4057C67.1882 89.5238 59.8055 92.2825 57.1076 89.1254ZM52.4185 63.5667C53.8299 59.7466 61.2016 60.2588 64.6382 60.5563C64.5256 62.96 64.5893 65.5405 64.8288 68.2146C62.8817 70.1192 61.1295 72.0692 59.6364 73.9918C56.9662 72.0667 51.0062 67.389 52.4185 63.5667ZM72.5209 47.2977C76.6238 46.6461 80.1803 53.239 81.6637 56.163C79.4705 57.2269 77.2114 58.5261 74.96 60.0198C72.3107 59.3028 69.7193 58.7659 67.2795 58.4279C67.6476 54.8274 68.4225 47.9486 72.5209 47.2977ZM88.2635 67.7248C89.9245 68.5804 91.4866 69.4794 92.9236 70.404C91.9143 71.6905 90.7646 73.001 89.4966 74.3113C89.1764 72.1027 88.7692 69.9038 88.2635 67.7248ZM82.7002 58.3801C83.3575 59.9054 83.9679 61.563 84.5212 63.3211C82.4107 62.4294 80.2605 61.6345 78.0776 60.9387C79.6374 59.9757 81.1874 59.1185 82.7002 58.3801ZM67.1467 66.0516C67.0447 64.2413 67.0309 62.4933 67.1042 60.8372C68.7846 61.0745 70.5455 61.4116 72.3512 61.8408C70.5483 63.1626 68.8113 64.5683 67.1467 66.0516ZM66.4306 78.0176C64.7166 77.1647 63.1292 76.2806 61.6953 75.3778C62.7335 74.0486 63.9055 72.7012 65.1869 71.3638C65.4936 73.5974 65.9093 75.8183 66.4306 78.0176ZM72.0588 87.3797C71.3816 85.8169 70.7524 84.1325 70.1847 82.3612C72.3134 83.2411 74.4766 84.0406 76.6701 84.7449C75.0914 85.7516 73.5467 86.6348 72.0588 87.3797ZM87.587 79.548C87.7207 81.4279 87.7593 83.2129 87.6999 84.8748C85.9896 84.6405 84.1788 84.2916 82.3032 83.8363C84.125 82.4795 85.8915 81.052 87.587 79.548ZM79.2426 83.0166C75.8554 82.0251 72.5332 80.7948 69.3062 79.3666C68.4113 76.0143 67.7733 72.6007 67.4034 69.165C69.9092 66.7986 72.5992 64.6209 75.4483 62.6567C78.8439 63.636 82.1706 64.8643 85.3863 66.3303C86.2579 69.669 86.8859 73.0644 87.2941 76.4777C84.773 78.8367 82.0722 81.0168 79.2426 83.0166ZM97.4926 56.4479C100.189 59.6047 96.182 65.7969 94.3547 68.4583C92.2798 67.1164 89.9625 65.8322 87.4773 64.648C86.7432 62.026 85.8859 59.5718 84.9291 57.3682C88.0028 56.0767 94.8219 53.3219 97.4926 56.4479Z" fill="#53C1DE"/>
</g>
</g>
<defs>
<filter id="filter0_d_1711_15" x="0" y="0" width="156" height="156" filterUnits="userSpaceOnUse" color-interpolation-filters="sRGB">
<feFlood flood-opacity="0" result="BackgroundImageFix"/>
<feColorMatrix in="SourceAlpha" type="matrix" values="0 0 0 0 0 0 0 0 0 0 0 0 0 0 0 0 0 0 127 0" result="hardAlpha"/>
<feOffset dy="5"/>
<feGaussianBlur stdDeviation="10"/>
<feComposite in2="hardAlpha" operator="out"/>
<feColorMatrix type="matrix" values="0 0 0 0 0 0 0 0 0 0 0 0 0 0 0 0 0 0 0.1 0"/>
<feBlend mode="normal" in2="BackgroundImageFix" result="effect1_dropShadow_1711_15"/>
<feBlend mode="normal" in="SourceGraphic" in2="effect1_dropShadow_1711_15" result="shape"/>
</filter>
<clipPath id="clip0_1711_15">
<rect width="62" height="62" fill="white" transform="translate(59 33) rotate(20.2782)"/>
</clipPath>
</defs>
</svg>
