<svg width="145" height="144" viewBox="0 0 145 144" fill="none" xmlns="http://www.w3.org/2000/svg">
<g filter="url(#filter0_d_1732_12012)">
<rect x="36" y="21" width="73" height="73" rx="14.6" fill="#0252CD"/>
</g>
<path d="M88.4453 66.2394V58.6178C88.4453 57.8312 88.1329 57.0769 87.5767 56.5207C87.0206 55.9646 86.2662 55.6521 85.4797 55.6521H73.6172V48.0305C75.015 47.6696 76.2332 46.8113 77.0434 45.6165C77.8536 44.4216 78.2003 42.9723 78.0184 41.5402C77.8365 40.1081 77.1385 38.7915 76.0553 37.8372C74.9721 36.8828 73.578 36.3563 72.1344 36.3563C70.6908 36.3563 69.2967 36.8828 68.2135 37.8372C67.1303 38.7915 66.4323 40.1081 66.2504 41.5402C66.0685 42.9723 66.4152 44.4216 67.2254 45.6165C68.0356 46.8113 69.2538 47.6696 70.6516 48.0305V55.6521H58.7891C58.0025 55.6521 57.2482 55.9646 56.6921 56.5207C56.1359 57.0769 55.8235 57.8312 55.8235 58.6178V66.2394C54.4257 66.6003 53.2075 67.4586 52.3973 68.6534C51.587 69.8483 51.2404 71.2976 51.4223 72.7297C51.6042 74.1618 52.3022 75.4784 53.3854 76.4327C54.4686 77.3871 55.8626 77.9136 57.3063 77.9136C58.7499 77.9136 60.144 77.3871 61.2272 76.4327C62.3104 75.4784 63.0083 74.1618 63.1902 72.7297C63.3721 71.2976 63.0255 69.8483 62.2153 68.6534C61.405 67.4586 60.1869 66.6003 58.7891 66.2394V58.6178H85.4797V66.2394C84.0819 66.6003 82.8637 67.4586 82.0535 68.6534C81.2433 69.8483 80.8966 71.2976 81.0785 72.7297C81.2604 74.1618 81.9584 75.4784 83.0416 76.4327C84.1248 77.3871 85.5189 77.9136 86.9625 77.9136C88.4061 77.9136 89.8002 77.3871 90.8834 76.4327C91.9666 75.4784 92.6646 74.1618 92.8465 72.7297C93.0284 71.2976 92.6817 69.8483 91.8715 68.6534C91.0613 67.4586 89.8431 66.6003 88.4453 66.2394ZM60.2719 71.9631C60.2719 72.5496 60.098 73.123 59.7721 73.6107C59.4462 74.0984 58.9831 74.4785 58.4412 74.703C57.8993 74.9274 57.303 74.9861 56.7277 74.8717C56.1524 74.7573 55.624 74.4748 55.2093 74.0601C54.7945 73.6453 54.5121 73.1169 54.3976 72.5416C54.2832 71.9664 54.3419 71.3701 54.5664 70.8282C54.7908 70.2863 55.171 69.8231 55.6587 69.4972C56.1463 69.1714 56.7197 68.9974 57.3063 68.9974C58.0928 68.9974 58.8471 69.3099 59.4033 69.8661C59.9594 70.4222 60.2719 71.1765 60.2719 71.9631ZM69.1688 42.3068C69.1688 41.7203 69.3427 41.1469 69.6686 40.6592C69.9944 40.1715 70.4576 39.7914 70.9995 39.5669C71.5414 39.3425 72.1377 39.2838 72.713 39.3982C73.2882 39.5126 73.8167 39.7951 74.2314 40.2098C74.6462 40.6246 74.9286 41.153 75.043 41.7283C75.1575 42.3035 75.0987 42.8998 74.8743 43.4417C74.6498 43.9836 74.2697 44.4468 73.782 44.7727C73.2943 45.0985 72.7209 45.2724 72.1344 45.2724C71.3479 45.2724 70.5935 44.96 70.0374 44.4038C69.4812 43.8477 69.1688 43.0934 69.1688 42.3068ZM86.9625 74.9287C86.376 74.9287 85.8026 74.7548 85.3149 74.4289C84.8272 74.103 84.4471 73.6399 84.2226 73.098C83.9982 72.5561 83.9394 71.9598 84.0539 71.3845C84.1683 70.8092 84.4508 70.2808 84.8655 69.8661C85.2803 69.4513 85.8087 69.1689 86.3839 69.0544C86.9592 68.94 87.5555 68.9987 88.0974 69.2232C88.6393 69.4477 89.1025 69.8278 89.4283 70.3155C89.7542 70.8032 89.9281 71.3765 89.9281 71.9631C89.9281 72.7496 89.6157 73.5039 89.0595 74.0601C88.5034 74.6162 87.749 74.9287 86.9625 74.9287Z" fill="white"/>
<defs>
<filter id="filter0_d_1732_12012" x="0.960003" y="0.560002" width="143.08" height="143.08" filterUnits="userSpaceOnUse" color-interpolation-filters="sRGB">
<feFlood flood-opacity="0" result="BackgroundImageFix"/>
<feColorMatrix in="SourceAlpha" type="matrix" values="0 0 0 0 0 0 0 0 0 0 0 0 0 0 0 0 0 0 127 0" result="hardAlpha"/>
<feOffset dy="14.6"/>
<feGaussianBlur stdDeviation="17.52"/>
<feColorMatrix type="matrix" values="0 0 0 0 0.290196 0 0 0 0 0.6 0 0 0 0 0.964706 0 0 0 0.25 0"/>
<feBlend mode="normal" in2="BackgroundImageFix" result="effect1_dropShadow_1732_12012"/>
<feBlend mode="normal" in="SourceGraphic" in2="effect1_dropShadow_1732_12012" result="shape"/>
</filter>
</defs>
</svg>
