<svg width="115" height="114" viewBox="0 0 115 114" fill="none" xmlns="http://www.w3.org/2000/svg">
<g filter="url(#filter0_d_1673_496)">
<rect x="16.5" y="16" width="62" height="62" rx="10" fill="#0252CD"/>
</g>
<path d="M44.675 52.25C45.275 52.85 46.05 53.144 47 53.132C47.95 53.12 48.65 52.776 49.1 52.1L57.5 39.5L44.9 47.9C44.225 48.35 43.869 49.0375 43.832 49.9625C43.795 50.8875 44.076 51.65 44.675 52.25ZM47 35C48.475 35 49.894 35.2065 51.257 35.6195C52.62 36.0325 53.901 36.651 55.1 37.475L52.25 39.275C51.425 38.85 50.569 38.5315 49.682 38.3195C48.795 38.1075 47.901 38.001 47 38C43.675 38 40.8435 39.1685 38.5055 41.5055C36.1675 43.8425 34.999 46.674 35 50C35 51.05 35.144 52.0875 35.432 53.1125C35.72 54.1375 36.126 55.1 36.65 56H57.35C57.925 55.05 58.344 54.0625 58.607 53.0375C58.87 52.0125 59.001 50.95 59 49.85C59 48.95 58.8935 48.075 58.6805 47.225C58.4675 46.375 58.149 45.55 57.725 44.75L59.525 41.9C60.275 43.075 60.869 44.325 61.307 45.65C61.745 46.975 61.976 48.35 62 49.775C62.025 51.2 61.8625 52.5625 61.5125 53.8625C61.1625 55.1625 60.65 56.4 59.975 57.575C59.7 58.025 59.325 58.375 58.85 58.625C58.375 58.875 57.875 59 57.35 59H36.65C36.125 59 35.625 58.875 35.15 58.625C34.675 58.375 34.3 58.025 34.025 57.575C33.375 56.45 32.875 55.256 32.525 53.993C32.175 52.73 32 51.399 32 50C32 47.925 32.394 45.981 33.182 44.168C33.97 42.355 35.045 40.768 36.407 39.407C37.769 38.044 39.362 36.9685 41.186 36.1805C43.01 35.3925 44.948 34.999 47 35Z" fill="white"/>
<defs>
<filter id="filter0_d_1673_496" x="0.5" y="0" width="114" height="114" filterUnits="userSpaceOnUse" color-interpolation-filters="sRGB">
<feFlood flood-opacity="0" result="BackgroundImageFix"/>
<feColorMatrix in="SourceAlpha" type="matrix" values="0 0 0 0 0 0 0 0 0 0 0 0 0 0 0 0 0 0 127 0" result="hardAlpha"/>
<feOffset dx="10" dy="10"/>
<feGaussianBlur stdDeviation="13"/>
<feComposite in2="hardAlpha" operator="out"/>
<feColorMatrix type="matrix" values="0 0 0 0 0.00784314 0 0 0 0 0.321569 0 0 0 0 0.803922 0 0 0 0.28 0"/>
<feBlend mode="normal" in2="BackgroundImageFix" result="effect1_dropShadow_1673_496"/>
<feBlend mode="normal" in="SourceGraphic" in2="effect1_dropShadow_1673_496" result="shape"/>
</filter>
</defs>
</svg>
